%TF.GenerationSoftware,KiCad,Pcbnew,(6.0.0-0)*%
%TF.CreationDate,2022-09-07T11:26:37-07:00*%
%TF.ProjectId,RainbowBlaster,5261696e-626f-4774-926c-61737465722e,rev?*%
%TF.SameCoordinates,Original*%
%TF.FileFunction,Paste,Top*%
%TF.FilePolarity,Positive*%
%FSLAX46Y46*%
G04 Gerber Fmt 4.6, Leading zero omitted, Abs format (unit mm)*
G04 Created by KiCad (PCBNEW (6.0.0-0)) date 2022-09-07 11:26:37*
%MOMM*%
%LPD*%
G01*
G04 APERTURE LIST*
G04 Aperture macros list*
%AMRoundRect*
0 Rectangle with rounded corners*
0 $1 Rounding radius*
0 $2 $3 $4 $5 $6 $7 $8 $9 X,Y pos of 4 corners*
0 Add a 4 corners polygon primitive as box body*
4,1,4,$2,$3,$4,$5,$6,$7,$8,$9,$2,$3,0*
0 Add four circle primitives for the rounded corners*
1,1,$1+$1,$2,$3*
1,1,$1+$1,$4,$5*
1,1,$1+$1,$6,$7*
1,1,$1+$1,$8,$9*
0 Add four rect primitives between the rounded corners*
20,1,$1+$1,$2,$3,$4,$5,0*
20,1,$1+$1,$4,$5,$6,$7,0*
20,1,$1+$1,$6,$7,$8,$9,0*
20,1,$1+$1,$8,$9,$2,$3,0*%
G04 Aperture macros list end*
%ADD10RoundRect,0.150000X-0.725000X-0.150000X0.725000X-0.150000X0.725000X0.150000X-0.725000X0.150000X0*%
%ADD11RoundRect,0.200000X-0.275000X0.200000X-0.275000X-0.200000X0.275000X-0.200000X0.275000X0.200000X0*%
%ADD12R,2.200000X2.200000*%
%ADD13R,1.250000X2.200000*%
%ADD14RoundRect,0.225000X-0.250000X0.225000X-0.250000X-0.225000X0.250000X-0.225000X0.250000X0.225000X0*%
%ADD15RoundRect,0.200000X0.275000X-0.200000X0.275000X0.200000X-0.275000X0.200000X-0.275000X-0.200000X0*%
%ADD16R,1.600000X0.850000*%
%ADD17RoundRect,0.225000X0.250000X-0.225000X0.250000X0.225000X-0.250000X0.225000X-0.250000X-0.225000X0*%
G04 APERTURE END LIST*
D10*
%TO.C,U2*%
X145375000Y-81045000D03*
X145375000Y-82315000D03*
X145375000Y-83585000D03*
X145375000Y-84855000D03*
X150525000Y-84855000D03*
X150525000Y-83585000D03*
X150525000Y-82315000D03*
X150525000Y-81045000D03*
%TD*%
D11*
%TO.C,R1*%
X136100000Y-84075000D03*
X136100000Y-85725000D03*
%TD*%
D12*
%TO.C,D10*%
X158900000Y-81700000D03*
D13*
X156625000Y-81700000D03*
%TD*%
D14*
%TO.C,C1*%
X134500000Y-87525000D03*
X134500000Y-89075000D03*
%TD*%
D12*
%TO.C,D2*%
X126200000Y-81700000D03*
D13*
X123925000Y-81700000D03*
%TD*%
D15*
%TO.C,R3*%
X136100000Y-89125000D03*
X136100000Y-87475000D03*
%TD*%
D14*
%TO.C,C5*%
X150900000Y-87425000D03*
X150900000Y-88975000D03*
%TD*%
D10*
%TO.C,U3*%
X161675000Y-80945000D03*
X161675000Y-82215000D03*
X161675000Y-83485000D03*
X161675000Y-84755000D03*
X166825000Y-84755000D03*
X166825000Y-83485000D03*
X166825000Y-82215000D03*
X166825000Y-80945000D03*
%TD*%
%TO.C,U1*%
X128925000Y-81095000D03*
X128925000Y-82365000D03*
X128925000Y-83635000D03*
X128925000Y-84905000D03*
X134075000Y-84905000D03*
X134075000Y-83635000D03*
X134075000Y-82365000D03*
X134075000Y-81095000D03*
%TD*%
D16*
%TO.C,D5*%
X148950000Y-88575000D03*
X148950000Y-86825000D03*
X145450000Y-86825000D03*
X145450000Y-88575000D03*
%TD*%
D17*
%TO.C,C2*%
X136100000Y-82550000D03*
X136100000Y-81000000D03*
%TD*%
%TO.C,C4*%
X152500000Y-82475000D03*
X152500000Y-80925000D03*
%TD*%
D14*
%TO.C,C3*%
X167150000Y-87350000D03*
X167150000Y-88900000D03*
%TD*%
D12*
%TO.C,D7*%
X142600000Y-85000000D03*
D13*
X140325000Y-85000000D03*
%TD*%
D15*
%TO.C,R5*%
X168700000Y-85525000D03*
X168700000Y-83875000D03*
%TD*%
D16*
%TO.C,D9*%
X165250000Y-88525000D03*
X165250000Y-86775000D03*
X161750000Y-86775000D03*
X161750000Y-88525000D03*
%TD*%
D15*
%TO.C,R2*%
X152500000Y-89025000D03*
X152500000Y-87375000D03*
%TD*%
D12*
%TO.C,D11*%
X158900000Y-85000000D03*
D13*
X156625000Y-85000000D03*
%TD*%
D17*
%TO.C,C6*%
X168700000Y-82400000D03*
X168700000Y-80850000D03*
%TD*%
D12*
%TO.C,D4*%
X126200000Y-88300000D03*
D13*
X123925000Y-88300000D03*
%TD*%
D12*
%TO.C,D8*%
X142600000Y-88300000D03*
D13*
X140325000Y-88300000D03*
%TD*%
D12*
%TO.C,D3*%
X126200000Y-85000000D03*
D13*
X123925000Y-85000000D03*
%TD*%
D15*
%TO.C,R4*%
X168650000Y-88975000D03*
X168650000Y-87325000D03*
%TD*%
D12*
%TO.C,D6*%
X142600000Y-81700000D03*
D13*
X140325000Y-81700000D03*
%TD*%
D12*
%TO.C,D12*%
X158900000Y-88300000D03*
D13*
X156625000Y-88300000D03*
%TD*%
D16*
%TO.C,D1*%
X132550000Y-88625000D03*
X132550000Y-86875000D03*
X129050000Y-86875000D03*
X129050000Y-88625000D03*
%TD*%
M02*
