%TF.GenerationSoftware,KiCad,Pcbnew,(6.0.0-0)*%
%TF.CreationDate,2022-09-07T11:26:37-07:00*%
%TF.ProjectId,RainbowBlaster,5261696e-626f-4774-926c-61737465722e,rev?*%
%TF.SameCoordinates,Original*%
%TF.FileFunction,Legend,Bot*%
%TF.FilePolarity,Positive*%
%FSLAX46Y46*%
G04 Gerber Fmt 4.6, Leading zero omitted, Abs format (unit mm)*
G04 Created by KiCad (PCBNEW (6.0.0-0)) date 2022-09-07 11:26:37*
%MOMM*%
%LPD*%
G01*
G04 APERTURE LIST*
%ADD10C,0.185208*%
%ADD11C,0.150000*%
%ADD12R,1.700000X1.700000*%
%ADD13O,1.700000X1.700000*%
G04 APERTURE END LIST*
D10*
X160914604Y-82651833D02*
X160173771Y-82651833D01*
X160173771Y-82651833D02*
X161173896Y-84096458D01*
X161173896Y-84096458D02*
X161914729Y-84096458D01*
X161914729Y-84096458D02*
X160914604Y-82651833D01*
X160914604Y-82651833D02*
X160914604Y-82651833D01*
G36*
X161914729Y-84096458D02*
G01*
X161173896Y-84096458D01*
X160173771Y-82651833D01*
X160914604Y-82651833D01*
X161914729Y-84096458D01*
G37*
X161914729Y-84096458D02*
X161173896Y-84096458D01*
X160173771Y-82651833D01*
X160914604Y-82651833D01*
X161914729Y-84096458D01*
X159488500Y-85559604D02*
X160229333Y-85559604D01*
X160229333Y-85559604D02*
X159229208Y-84096458D01*
X159229208Y-84096458D02*
X158469854Y-84096458D01*
X158469854Y-84096458D02*
X159488500Y-85559604D01*
X159488500Y-85559604D02*
X159488500Y-85559604D01*
G36*
X160229333Y-85559604D02*
G01*
X159488500Y-85559604D01*
X158469854Y-84096458D01*
X159229208Y-84096458D01*
X160229333Y-85559604D01*
G37*
X160229333Y-85559604D02*
X159488500Y-85559604D01*
X158469854Y-84096458D01*
X159229208Y-84096458D01*
X160229333Y-85559604D01*
X161581354Y-85559604D02*
X159562583Y-82651833D01*
X159562583Y-82651833D02*
X158821750Y-82651833D01*
X158821750Y-82651833D02*
X160840521Y-85559604D01*
X160840521Y-85559604D02*
X161581354Y-85559604D01*
X161581354Y-85559604D02*
X161581354Y-85559604D01*
G36*
X161581354Y-85559604D02*
G01*
X160840521Y-85559604D01*
X158821750Y-82651833D01*
X159562583Y-82651833D01*
X161581354Y-85559604D01*
G37*
X161581354Y-85559604D02*
X160840521Y-85559604D01*
X158821750Y-82651833D01*
X159562583Y-82651833D01*
X161581354Y-85559604D01*
X157803104Y-82800000D02*
X160210813Y-81485021D01*
X160210813Y-81485021D02*
X162600000Y-82800000D01*
X162600000Y-82800000D02*
X162600000Y-85411437D01*
X162600000Y-85411437D02*
X160210813Y-86726416D01*
X160210813Y-86726416D02*
X157803104Y-85411437D01*
X157803104Y-85411437D02*
X157803104Y-82800000D01*
X157803104Y-82800000D02*
X157803104Y-82800000D01*
D11*
X124135595Y-80936000D02*
X124211785Y-80897904D01*
X124326071Y-80897904D01*
X124440357Y-80936000D01*
X124516547Y-81012190D01*
X124554642Y-81088380D01*
X124592738Y-81240761D01*
X124592738Y-81355047D01*
X124554642Y-81507428D01*
X124516547Y-81583619D01*
X124440357Y-81659809D01*
X124326071Y-81697904D01*
X124249880Y-81697904D01*
X124135595Y-81659809D01*
X124097500Y-81621714D01*
X124097500Y-81355047D01*
X124249880Y-81355047D01*
X123754642Y-81164571D02*
X123754642Y-81697904D01*
X123754642Y-81240761D02*
X123716547Y-81202666D01*
X123640357Y-81164571D01*
X123526071Y-81164571D01*
X123449880Y-81202666D01*
X123411785Y-81278857D01*
X123411785Y-81697904D01*
X122687976Y-81697904D02*
X122687976Y-80897904D01*
X122687976Y-81659809D02*
X122764166Y-81697904D01*
X122916547Y-81697904D01*
X122992738Y-81659809D01*
X123030833Y-81621714D01*
X123068928Y-81545523D01*
X123068928Y-81316952D01*
X123030833Y-81240761D01*
X122992738Y-81202666D01*
X122916547Y-81164571D01*
X122764166Y-81164571D01*
X122687976Y-81202666D01*
X125583214Y-84273904D02*
X125583214Y-83473904D01*
X125392738Y-83473904D01*
X125278452Y-83512000D01*
X125202261Y-83588190D01*
X125164166Y-83664380D01*
X125126071Y-83816761D01*
X125126071Y-83931047D01*
X125164166Y-84083428D01*
X125202261Y-84159619D01*
X125278452Y-84235809D01*
X125392738Y-84273904D01*
X125583214Y-84273904D01*
X124821309Y-83550095D02*
X124783214Y-83512000D01*
X124707023Y-83473904D01*
X124516547Y-83473904D01*
X124440357Y-83512000D01*
X124402261Y-83550095D01*
X124364166Y-83626285D01*
X124364166Y-83702476D01*
X124402261Y-83816761D01*
X124859404Y-84273904D01*
X124364166Y-84273904D01*
X123411785Y-84273904D02*
X123411785Y-83473904D01*
X123030833Y-83740571D02*
X123030833Y-84273904D01*
X123030833Y-83816761D02*
X122992738Y-83778666D01*
X122916547Y-83740571D01*
X122802261Y-83740571D01*
X122726071Y-83778666D01*
X122687976Y-83854857D01*
X122687976Y-84273904D01*
X125583214Y-86849904D02*
X125583214Y-86049904D01*
X125392738Y-86049904D01*
X125278452Y-86088000D01*
X125202261Y-86164190D01*
X125164166Y-86240380D01*
X125126071Y-86392761D01*
X125126071Y-86507047D01*
X125164166Y-86659428D01*
X125202261Y-86735619D01*
X125278452Y-86811809D01*
X125392738Y-86849904D01*
X125583214Y-86849904D01*
X124364166Y-86849904D02*
X124821309Y-86849904D01*
X124592738Y-86849904D02*
X124592738Y-86049904D01*
X124668928Y-86164190D01*
X124745119Y-86240380D01*
X124821309Y-86278476D01*
X123411785Y-86849904D02*
X123411785Y-86049904D01*
X123030833Y-86316571D02*
X123030833Y-86849904D01*
X123030833Y-86392761D02*
X122992738Y-86354666D01*
X122916547Y-86316571D01*
X122802261Y-86316571D01*
X122726071Y-86354666D01*
X122687976Y-86430857D01*
X122687976Y-86849904D01*
X124745119Y-89121142D02*
X124135595Y-89121142D01*
X124440357Y-89425904D02*
X124440357Y-88816380D01*
X123373690Y-88625904D02*
X123754642Y-88625904D01*
X123792738Y-89006857D01*
X123754642Y-88968761D01*
X123678452Y-88930666D01*
X123487976Y-88930666D01*
X123411785Y-88968761D01*
X123373690Y-89006857D01*
X123335595Y-89083047D01*
X123335595Y-89273523D01*
X123373690Y-89349714D01*
X123411785Y-89387809D01*
X123487976Y-89425904D01*
X123678452Y-89425904D01*
X123754642Y-89387809D01*
X123792738Y-89349714D01*
X123107023Y-88625904D02*
X122840357Y-89425904D01*
X122573690Y-88625904D01*
X138173690Y-84452380D02*
X137840357Y-85452380D01*
X137507023Y-84452380D01*
X136792738Y-85404761D02*
X136887976Y-85452380D01*
X137078452Y-85452380D01*
X137173690Y-85404761D01*
X137221309Y-85309523D01*
X137221309Y-84928571D01*
X137173690Y-84833333D01*
X137078452Y-84785714D01*
X136887976Y-84785714D01*
X136792738Y-84833333D01*
X136745119Y-84928571D01*
X136745119Y-85023809D01*
X137221309Y-85119047D01*
X136316547Y-85452380D02*
X136316547Y-84785714D01*
X136316547Y-84976190D02*
X136268928Y-84880952D01*
X136221309Y-84833333D01*
X136126071Y-84785714D01*
X136030833Y-84785714D01*
X135745119Y-85404761D02*
X135649880Y-85452380D01*
X135459404Y-85452380D01*
X135364166Y-85404761D01*
X135316547Y-85309523D01*
X135316547Y-85261904D01*
X135364166Y-85166666D01*
X135459404Y-85119047D01*
X135602261Y-85119047D01*
X135697500Y-85071428D01*
X135745119Y-84976190D01*
X135745119Y-84928571D01*
X135697500Y-84833333D01*
X135602261Y-84785714D01*
X135459404Y-84785714D01*
X135364166Y-84833333D01*
X134887976Y-85452380D02*
X134887976Y-84785714D01*
X134887976Y-84452380D02*
X134935595Y-84500000D01*
X134887976Y-84547619D01*
X134840357Y-84500000D01*
X134887976Y-84452380D01*
X134887976Y-84547619D01*
X134268928Y-85452380D02*
X134364166Y-85404761D01*
X134411785Y-85357142D01*
X134459404Y-85261904D01*
X134459404Y-84976190D01*
X134411785Y-84880952D01*
X134364166Y-84833333D01*
X134268928Y-84785714D01*
X134126071Y-84785714D01*
X134030833Y-84833333D01*
X133983214Y-84880952D01*
X133935595Y-84976190D01*
X133935595Y-85261904D01*
X133983214Y-85357142D01*
X134030833Y-85404761D01*
X134126071Y-85452380D01*
X134268928Y-85452380D01*
X133507023Y-84785714D02*
X133507023Y-85452380D01*
X133507023Y-84880952D02*
X133459404Y-84833333D01*
X133364166Y-84785714D01*
X133221309Y-84785714D01*
X133126071Y-84833333D01*
X133078452Y-84928571D01*
X133078452Y-85452380D01*
X131649880Y-84452380D02*
X131554642Y-84452380D01*
X131459404Y-84500000D01*
X131411785Y-84547619D01*
X131364166Y-84642857D01*
X131316547Y-84833333D01*
X131316547Y-85071428D01*
X131364166Y-85261904D01*
X131411785Y-85357142D01*
X131459404Y-85404761D01*
X131554642Y-85452380D01*
X131649880Y-85452380D01*
X131745119Y-85404761D01*
X131792738Y-85357142D01*
X131840357Y-85261904D01*
X131887976Y-85071428D01*
X131887976Y-84833333D01*
X131840357Y-84642857D01*
X131792738Y-84547619D01*
X131745119Y-84500000D01*
X131649880Y-84452380D01*
X130887976Y-85357142D02*
X130840357Y-85404761D01*
X130887976Y-85452380D01*
X130935595Y-85404761D01*
X130887976Y-85357142D01*
X130887976Y-85452380D01*
X130221309Y-84452380D02*
X130126071Y-84452380D01*
X130030833Y-84500000D01*
X129983214Y-84547619D01*
X129935595Y-84642857D01*
X129887976Y-84833333D01*
X129887976Y-85071428D01*
X129935595Y-85261904D01*
X129983214Y-85357142D01*
X130030833Y-85404761D01*
X130126071Y-85452380D01*
X130221309Y-85452380D01*
X130316547Y-85404761D01*
X130364166Y-85357142D01*
X130411785Y-85261904D01*
X130459404Y-85071428D01*
X130459404Y-84833333D01*
X130411785Y-84642857D01*
X130364166Y-84547619D01*
X130316547Y-84500000D01*
X130221309Y-84452380D01*
X169092976Y-80736000D02*
X169169166Y-80697904D01*
X169283452Y-80697904D01*
X169397738Y-80736000D01*
X169473928Y-80812190D01*
X169512023Y-80888380D01*
X169550119Y-81040761D01*
X169550119Y-81155047D01*
X169512023Y-81307428D01*
X169473928Y-81383619D01*
X169397738Y-81459809D01*
X169283452Y-81497904D01*
X169207261Y-81497904D01*
X169092976Y-81459809D01*
X169054880Y-81421714D01*
X169054880Y-81155047D01*
X169207261Y-81155047D01*
X168712023Y-80964571D02*
X168712023Y-81497904D01*
X168712023Y-81040761D02*
X168673928Y-81002666D01*
X168597738Y-80964571D01*
X168483452Y-80964571D01*
X168407261Y-81002666D01*
X168369166Y-81078857D01*
X168369166Y-81497904D01*
X167645357Y-81497904D02*
X167645357Y-80697904D01*
X167645357Y-81459809D02*
X167721547Y-81497904D01*
X167873928Y-81497904D01*
X167950119Y-81459809D01*
X167988214Y-81421714D01*
X168026309Y-81345523D01*
X168026309Y-81116952D01*
X167988214Y-81040761D01*
X167950119Y-81002666D01*
X167873928Y-80964571D01*
X167721547Y-80964571D01*
X167645357Y-81002666D01*
X169512023Y-84073904D02*
X169512023Y-83273904D01*
X169321547Y-83273904D01*
X169207261Y-83312000D01*
X169131071Y-83388190D01*
X169092976Y-83464380D01*
X169054880Y-83616761D01*
X169054880Y-83731047D01*
X169092976Y-83883428D01*
X169131071Y-83959619D01*
X169207261Y-84035809D01*
X169321547Y-84073904D01*
X169512023Y-84073904D01*
X168750119Y-83350095D02*
X168712023Y-83312000D01*
X168635833Y-83273904D01*
X168445357Y-83273904D01*
X168369166Y-83312000D01*
X168331071Y-83350095D01*
X168292976Y-83426285D01*
X168292976Y-83502476D01*
X168331071Y-83616761D01*
X168788214Y-84073904D01*
X168292976Y-84073904D01*
X167188214Y-83273904D02*
X167035833Y-83273904D01*
X166959642Y-83312000D01*
X166883452Y-83388190D01*
X166845357Y-83540571D01*
X166845357Y-83807238D01*
X166883452Y-83959619D01*
X166959642Y-84035809D01*
X167035833Y-84073904D01*
X167188214Y-84073904D01*
X167264404Y-84035809D01*
X167340595Y-83959619D01*
X167378690Y-83807238D01*
X167378690Y-83540571D01*
X167340595Y-83388190D01*
X167264404Y-83312000D01*
X167188214Y-83273904D01*
X166159642Y-83540571D02*
X166159642Y-84073904D01*
X166502500Y-83540571D02*
X166502500Y-83959619D01*
X166464404Y-84035809D01*
X166388214Y-84073904D01*
X166273928Y-84073904D01*
X166197738Y-84035809D01*
X166159642Y-83997714D01*
X165892976Y-83540571D02*
X165588214Y-83540571D01*
X165778690Y-83273904D02*
X165778690Y-83959619D01*
X165740595Y-84035809D01*
X165664404Y-84073904D01*
X165588214Y-84073904D01*
X169512023Y-86649904D02*
X169512023Y-85849904D01*
X169321547Y-85849904D01*
X169207261Y-85888000D01*
X169131071Y-85964190D01*
X169092976Y-86040380D01*
X169054880Y-86192761D01*
X169054880Y-86307047D01*
X169092976Y-86459428D01*
X169131071Y-86535619D01*
X169207261Y-86611809D01*
X169321547Y-86649904D01*
X169512023Y-86649904D01*
X168292976Y-86649904D02*
X168750119Y-86649904D01*
X168521547Y-86649904D02*
X168521547Y-85849904D01*
X168597738Y-85964190D01*
X168673928Y-86040380D01*
X168750119Y-86078476D01*
X167188214Y-85849904D02*
X167035833Y-85849904D01*
X166959642Y-85888000D01*
X166883452Y-85964190D01*
X166845357Y-86116571D01*
X166845357Y-86383238D01*
X166883452Y-86535619D01*
X166959642Y-86611809D01*
X167035833Y-86649904D01*
X167188214Y-86649904D01*
X167264404Y-86611809D01*
X167340595Y-86535619D01*
X167378690Y-86383238D01*
X167378690Y-86116571D01*
X167340595Y-85964190D01*
X167264404Y-85888000D01*
X167188214Y-85849904D01*
X166159642Y-86116571D02*
X166159642Y-86649904D01*
X166502500Y-86116571D02*
X166502500Y-86535619D01*
X166464404Y-86611809D01*
X166388214Y-86649904D01*
X166273928Y-86649904D01*
X166197738Y-86611809D01*
X166159642Y-86573714D01*
X165892976Y-86116571D02*
X165588214Y-86116571D01*
X165778690Y-85849904D02*
X165778690Y-86535619D01*
X165740595Y-86611809D01*
X165664404Y-86649904D01*
X165588214Y-86649904D01*
X169512023Y-88921142D02*
X168902500Y-88921142D01*
X169207261Y-89225904D02*
X169207261Y-88616380D01*
X168140595Y-88425904D02*
X168521547Y-88425904D01*
X168559642Y-88806857D01*
X168521547Y-88768761D01*
X168445357Y-88730666D01*
X168254880Y-88730666D01*
X168178690Y-88768761D01*
X168140595Y-88806857D01*
X168102500Y-88883047D01*
X168102500Y-89073523D01*
X168140595Y-89149714D01*
X168178690Y-89187809D01*
X168254880Y-89225904D01*
X168445357Y-89225904D01*
X168521547Y-89187809D01*
X168559642Y-89149714D01*
X167873928Y-88425904D02*
X167607261Y-89225904D01*
X167340595Y-88425904D01*
X160735595Y-89252380D02*
X160735595Y-88728571D01*
X160783214Y-88633333D01*
X160878452Y-88585714D01*
X161068928Y-88585714D01*
X161164166Y-88633333D01*
X160735595Y-89204761D02*
X160830833Y-89252380D01*
X161068928Y-89252380D01*
X161164166Y-89204761D01*
X161211785Y-89109523D01*
X161211785Y-89014285D01*
X161164166Y-88919047D01*
X161068928Y-88871428D01*
X160830833Y-88871428D01*
X160735595Y-88823809D01*
X159497500Y-88585714D02*
X159497500Y-89442857D01*
X159545119Y-89538095D01*
X159640357Y-89585714D01*
X159687976Y-89585714D01*
X159497500Y-88252380D02*
X159545119Y-88300000D01*
X159497500Y-88347619D01*
X159449880Y-88300000D01*
X159497500Y-88252380D01*
X159497500Y-88347619D01*
X158592738Y-89252380D02*
X158592738Y-88728571D01*
X158640357Y-88633333D01*
X158735595Y-88585714D01*
X158926071Y-88585714D01*
X159021309Y-88633333D01*
X158592738Y-89204761D02*
X158687976Y-89252380D01*
X158926071Y-89252380D01*
X159021309Y-89204761D01*
X159068928Y-89109523D01*
X159068928Y-89014285D01*
X159021309Y-88919047D01*
X158926071Y-88871428D01*
X158687976Y-88871428D01*
X158592738Y-88823809D01*
X158116547Y-89252380D02*
X158116547Y-88585714D01*
X158116547Y-88680952D02*
X158068928Y-88633333D01*
X157973690Y-88585714D01*
X157830833Y-88585714D01*
X157735595Y-88633333D01*
X157687976Y-88728571D01*
X157687976Y-89252380D01*
X157687976Y-88728571D02*
X157640357Y-88633333D01*
X157545119Y-88585714D01*
X157402261Y-88585714D01*
X157307023Y-88633333D01*
X157259404Y-88728571D01*
X157259404Y-89252380D01*
X156021309Y-89252380D02*
X156021309Y-88252380D01*
X156021309Y-88633333D02*
X155926071Y-88585714D01*
X155735595Y-88585714D01*
X155640357Y-88633333D01*
X155592738Y-88680952D01*
X155545119Y-88776190D01*
X155545119Y-89061904D01*
X155592738Y-89157142D01*
X155640357Y-89204761D01*
X155735595Y-89252380D01*
X155926071Y-89252380D01*
X156021309Y-89204761D01*
X155211785Y-88585714D02*
X154973690Y-89252380D01*
X154735595Y-88585714D02*
X154973690Y-89252380D01*
X155068928Y-89490476D01*
X155116547Y-89538095D01*
X155211785Y-89585714D01*
X153687976Y-88252380D02*
X153449880Y-89252380D01*
X153259404Y-88538095D01*
X153068928Y-89252380D01*
X152830833Y-88252380D01*
X152449880Y-89252380D02*
X152449880Y-88252380D01*
X152021309Y-89252380D02*
X152021309Y-88728571D01*
X152068928Y-88633333D01*
X152164166Y-88585714D01*
X152307023Y-88585714D01*
X152402261Y-88633333D01*
X152449880Y-88680952D01*
X151402261Y-89252380D02*
X151497500Y-89204761D01*
X151545119Y-89157142D01*
X151592738Y-89061904D01*
X151592738Y-88776190D01*
X151545119Y-88680952D01*
X151497500Y-88633333D01*
X151402261Y-88585714D01*
X151259404Y-88585714D01*
X151164166Y-88633333D01*
X151116547Y-88680952D01*
X151068928Y-88776190D01*
X151068928Y-89061904D01*
X151116547Y-89157142D01*
X151164166Y-89204761D01*
X151259404Y-89252380D01*
X151402261Y-89252380D01*
X150640357Y-88585714D02*
X150640357Y-89585714D01*
X150640357Y-88633333D02*
X150545119Y-88585714D01*
X150354642Y-88585714D01*
X150259404Y-88633333D01*
X150211785Y-88680952D01*
X150164166Y-88776190D01*
X150164166Y-89061904D01*
X150211785Y-89157142D01*
X150259404Y-89204761D01*
X150354642Y-89252380D01*
X150545119Y-89252380D01*
X150640357Y-89204761D01*
X149735595Y-88585714D02*
X149735595Y-89585714D01*
X149735595Y-88633333D02*
X149640357Y-88585714D01*
X149449880Y-88585714D01*
X149354642Y-88633333D01*
X149307023Y-88680952D01*
X149259404Y-88776190D01*
X149259404Y-89061904D01*
X149307023Y-89157142D01*
X149354642Y-89204761D01*
X149449880Y-89252380D01*
X149640357Y-89252380D01*
X149735595Y-89204761D01*
X148830833Y-89252380D02*
X148830833Y-88585714D01*
X148830833Y-88252380D02*
X148878452Y-88300000D01*
X148830833Y-88347619D01*
X148783214Y-88300000D01*
X148830833Y-88252380D01*
X148830833Y-88347619D01*
X148354642Y-88585714D02*
X148354642Y-89252380D01*
X148354642Y-88680952D02*
X148307023Y-88633333D01*
X148211785Y-88585714D01*
X148068928Y-88585714D01*
X147973690Y-88633333D01*
X147926071Y-88728571D01*
X147926071Y-89252380D01*
X147021309Y-88585714D02*
X147021309Y-89395238D01*
X147068928Y-89490476D01*
X147116547Y-89538095D01*
X147211785Y-89585714D01*
X147354642Y-89585714D01*
X147449880Y-89538095D01*
X147021309Y-89204761D02*
X147116547Y-89252380D01*
X147307023Y-89252380D01*
X147402261Y-89204761D01*
X147449880Y-89157142D01*
X147497500Y-89061904D01*
X147497500Y-88776190D01*
X147449880Y-88680952D01*
X147402261Y-88633333D01*
X147307023Y-88585714D01*
X147116547Y-88585714D01*
X147021309Y-88633333D01*
X146545119Y-89252380D02*
X146545119Y-88252380D01*
X146164166Y-88252380D01*
X146068928Y-88300000D01*
X146021309Y-88347619D01*
X145973690Y-88442857D01*
X145973690Y-88585714D01*
X146021309Y-88680952D01*
X146068928Y-88728571D01*
X146164166Y-88776190D01*
X146545119Y-88776190D01*
X145402261Y-89252380D02*
X145497500Y-89204761D01*
X145545119Y-89157142D01*
X145592738Y-89061904D01*
X145592738Y-88776190D01*
X145545119Y-88680952D01*
X145497500Y-88633333D01*
X145402261Y-88585714D01*
X145259404Y-88585714D01*
X145164166Y-88633333D01*
X145116547Y-88680952D01*
X145068928Y-88776190D01*
X145068928Y-89061904D01*
X145116547Y-89157142D01*
X145164166Y-89204761D01*
X145259404Y-89252380D01*
X145402261Y-89252380D01*
X144211785Y-89204761D02*
X144307023Y-89252380D01*
X144497500Y-89252380D01*
X144592738Y-89204761D01*
X144640357Y-89157142D01*
X144687976Y-89061904D01*
X144687976Y-88776190D01*
X144640357Y-88680952D01*
X144592738Y-88633333D01*
X144497500Y-88585714D01*
X144307023Y-88585714D01*
X144211785Y-88633333D01*
X143783214Y-89252380D02*
X143783214Y-88252380D01*
X143354642Y-89252380D02*
X143354642Y-88728571D01*
X143402261Y-88633333D01*
X143497500Y-88585714D01*
X143640357Y-88585714D01*
X143735595Y-88633333D01*
X143783214Y-88680952D01*
X142449880Y-89252380D02*
X142449880Y-88728571D01*
X142497500Y-88633333D01*
X142592738Y-88585714D01*
X142783214Y-88585714D01*
X142878452Y-88633333D01*
X142449880Y-89204761D02*
X142545119Y-89252380D01*
X142783214Y-89252380D01*
X142878452Y-89204761D01*
X142926071Y-89109523D01*
X142926071Y-89014285D01*
X142878452Y-88919047D01*
X142783214Y-88871428D01*
X142545119Y-88871428D01*
X142449880Y-88823809D01*
X141973690Y-89252380D02*
X141973690Y-88585714D01*
X141973690Y-88776190D02*
X141926071Y-88680952D01*
X141878452Y-88633333D01*
X141783214Y-88585714D01*
X141687976Y-88585714D01*
X140926071Y-89252380D02*
X140926071Y-88252380D01*
X140926071Y-89204761D02*
X141021309Y-89252380D01*
X141211785Y-89252380D01*
X141307023Y-89204761D01*
X141354642Y-89157142D01*
X141402261Y-89061904D01*
X141402261Y-88776190D01*
X141354642Y-88680952D01*
X141307023Y-88633333D01*
X141211785Y-88585714D01*
X141021309Y-88585714D01*
X140926071Y-88633333D01*
X139259404Y-89252380D02*
X139259404Y-88728571D01*
X139307023Y-88633333D01*
X139402261Y-88585714D01*
X139592738Y-88585714D01*
X139687976Y-88633333D01*
X139259404Y-89204761D02*
X139354642Y-89252380D01*
X139592738Y-89252380D01*
X139687976Y-89204761D01*
X139735595Y-89109523D01*
X139735595Y-89014285D01*
X139687976Y-88919047D01*
X139592738Y-88871428D01*
X139354642Y-88871428D01*
X139259404Y-88823809D01*
X138783214Y-88585714D02*
X138783214Y-89252380D01*
X138783214Y-88680952D02*
X138735595Y-88633333D01*
X138640357Y-88585714D01*
X138497500Y-88585714D01*
X138402261Y-88633333D01*
X138354642Y-88728571D01*
X138354642Y-89252380D01*
X137449880Y-89252380D02*
X137449880Y-88252380D01*
X137449880Y-89204761D02*
X137545119Y-89252380D01*
X137735595Y-89252380D01*
X137830833Y-89204761D01*
X137878452Y-89157142D01*
X137926071Y-89061904D01*
X137926071Y-88776190D01*
X137878452Y-88680952D01*
X137830833Y-88633333D01*
X137735595Y-88585714D01*
X137545119Y-88585714D01*
X137449880Y-88633333D01*
X135926071Y-88252380D02*
X135926071Y-88966666D01*
X135973690Y-89109523D01*
X136068928Y-89204761D01*
X136211785Y-89252380D01*
X136307023Y-89252380D01*
X135021309Y-89252380D02*
X135021309Y-88728571D01*
X135068928Y-88633333D01*
X135164166Y-88585714D01*
X135354642Y-88585714D01*
X135449880Y-88633333D01*
X135021309Y-89204761D02*
X135116547Y-89252380D01*
X135354642Y-89252380D01*
X135449880Y-89204761D01*
X135497500Y-89109523D01*
X135497500Y-89014285D01*
X135449880Y-88919047D01*
X135354642Y-88871428D01*
X135116547Y-88871428D01*
X135021309Y-88823809D01*
X134545119Y-89252380D02*
X134545119Y-88585714D01*
X134545119Y-88776190D02*
X134497500Y-88680952D01*
X134449880Y-88633333D01*
X134354642Y-88585714D01*
X134259404Y-88585714D01*
X133545119Y-89204761D02*
X133640357Y-89252380D01*
X133830833Y-89252380D01*
X133926071Y-89204761D01*
X133973690Y-89109523D01*
X133973690Y-88728571D01*
X133926071Y-88633333D01*
X133830833Y-88585714D01*
X133640357Y-88585714D01*
X133545119Y-88633333D01*
X133497500Y-88728571D01*
X133497500Y-88823809D01*
X133973690Y-88919047D01*
X132640357Y-89252380D02*
X132640357Y-88252380D01*
X132640357Y-89204761D02*
X132735595Y-89252380D01*
X132926071Y-89252380D01*
X133021309Y-89204761D01*
X133068928Y-89157142D01*
X133116547Y-89061904D01*
X133116547Y-88776190D01*
X133068928Y-88680952D01*
X133021309Y-88633333D01*
X132926071Y-88585714D01*
X132735595Y-88585714D01*
X132640357Y-88633333D01*
X131592738Y-89157142D02*
X131640357Y-89204761D01*
X131783214Y-89252380D01*
X131878452Y-89252380D01*
X132021309Y-89204761D01*
X132116547Y-89109523D01*
X132164166Y-89014285D01*
X132211785Y-88823809D01*
X132211785Y-88680952D01*
X132164166Y-88490476D01*
X132116547Y-88395238D01*
X132021309Y-88300000D01*
X131878452Y-88252380D01*
X131783214Y-88252380D01*
X131640357Y-88300000D01*
X131592738Y-88347619D01*
X130973690Y-88252380D02*
X130878452Y-88252380D01*
X130783214Y-88300000D01*
X130735595Y-88347619D01*
X130687976Y-88442857D01*
X130640357Y-88633333D01*
X130640357Y-88871428D01*
X130687976Y-89061904D01*
X130735595Y-89157142D01*
X130783214Y-89204761D01*
X130878452Y-89252380D01*
X130973690Y-89252380D01*
X131068928Y-89204761D01*
X131116547Y-89157142D01*
X131164166Y-89061904D01*
X131211785Y-88871428D01*
X131211785Y-88633333D01*
X131164166Y-88442857D01*
X131116547Y-88347619D01*
X131068928Y-88300000D01*
X130973690Y-88252380D01*
X129687976Y-89252380D02*
X130259404Y-89252380D01*
X129973690Y-89252380D02*
X129973690Y-88252380D01*
X130068928Y-88395238D01*
X130164166Y-88490476D01*
X130259404Y-88538095D01*
%TO.C,kibuzzard-6318CB10*%
G36*
X151848202Y-81634850D02*
G01*
X151911702Y-81642787D01*
X151911702Y-82233337D01*
X151825977Y-82233337D01*
X151653733Y-82213891D01*
X151537052Y-82155550D01*
X151448152Y-81934887D01*
X151471964Y-81799950D01*
X151543402Y-81706287D01*
X151653733Y-81651519D01*
X151794227Y-81633262D01*
X151848202Y-81634850D01*
G37*
G36*
X145429939Y-82111100D02*
G01*
X145536302Y-82153962D01*
X145536302Y-82963588D01*
X145442639Y-82976287D01*
X145358502Y-82979462D01*
X145221977Y-82953666D01*
X145117202Y-82876275D01*
X145050527Y-82736972D01*
X145028302Y-82525437D01*
X145045367Y-82340494D01*
X145096564Y-82204762D01*
X145182686Y-82121419D01*
X145304527Y-82093637D01*
X145429939Y-82111100D01*
G37*
G36*
X150168627Y-82641325D02*
G01*
X150268639Y-82668313D01*
X150336902Y-82722287D01*
X150362302Y-82814363D01*
X150286102Y-82958825D01*
X150089252Y-83001687D01*
X149965427Y-83000100D01*
X149860652Y-82992162D01*
X149860652Y-82649262D01*
X149952727Y-82638150D01*
X150051152Y-82633387D01*
X150168627Y-82641325D01*
G37*
G36*
X140799202Y-82954062D02*
G01*
X140708714Y-82963588D01*
X140611877Y-82966762D01*
X140481702Y-82955650D01*
X140368989Y-82914375D01*
X140288027Y-82828650D01*
X140256277Y-82687362D01*
X140346764Y-82482575D01*
X140589652Y-82420662D01*
X140799202Y-82420662D01*
X140799202Y-82954062D01*
G37*
G36*
X132745814Y-82103162D02*
G01*
X132837889Y-82173012D01*
X132895039Y-82274612D01*
X132922027Y-82392088D01*
X132325127Y-82392088D01*
X132341002Y-82276200D01*
X132391802Y-82176187D01*
X132480702Y-82104750D01*
X132614052Y-82077762D01*
X132745814Y-82103162D01*
G37*
G36*
X128647101Y-80416179D02*
G01*
X152963685Y-80416179D01*
X154152899Y-82200000D01*
X152963685Y-83983821D01*
X129717393Y-83983821D01*
X129069376Y-81823762D01*
X130378852Y-81823762D01*
X130448702Y-82185712D01*
X130539189Y-82166662D01*
X130645552Y-82149200D01*
X130750327Y-82138087D01*
X130836052Y-82134912D01*
X130997977Y-82142850D01*
X131159902Y-82173012D01*
X131159902Y-83281087D01*
X131553602Y-83281087D01*
X131553602Y-82515913D01*
X131947302Y-82515913D01*
X131948889Y-82595287D01*
X131953652Y-82661962D01*
X132922027Y-82661962D01*
X132891864Y-82792534D01*
X132801377Y-82892150D01*
X132663264Y-82955253D01*
X132490227Y-82976287D01*
X132266389Y-82950888D01*
X132087002Y-82900088D01*
X132033027Y-83233463D01*
X132248927Y-83292200D01*
X132506102Y-83316012D01*
X132686680Y-83303709D01*
X132847414Y-83266800D01*
X132923613Y-83233463D01*
X133512577Y-83233463D01*
X133745939Y-83296963D01*
X133988827Y-83316012D01*
X134230127Y-83293788D01*
X134407927Y-83208062D01*
X134519052Y-83028675D01*
X134547627Y-82894928D01*
X134549122Y-82868337D01*
X135195327Y-82868337D01*
X135230252Y-83042962D01*
X135346139Y-83185838D01*
X135557277Y-83281087D01*
X135702533Y-83307281D01*
X135877952Y-83316012D01*
X136057339Y-83304900D01*
X136208152Y-83271563D01*
X136278258Y-83246162D01*
X136786002Y-83246162D01*
X137040002Y-83290612D01*
X137218596Y-83309663D01*
X137417827Y-83316012D01*
X137676589Y-83290612D01*
X137848819Y-83217587D01*
X138290952Y-83217587D01*
X138333814Y-83239812D01*
X138421127Y-83273150D01*
X138552889Y-83303312D01*
X138729102Y-83316012D01*
X138962464Y-83275928D01*
X139122802Y-83155675D01*
X139215671Y-82958428D01*
X139246627Y-82687362D01*
X139872102Y-82687362D01*
X139887183Y-82850478D01*
X139932427Y-82984225D01*
X140095939Y-83174725D01*
X140208652Y-83235844D01*
X140340414Y-83276325D01*
X140486861Y-83298947D01*
X140643627Y-83306487D01*
X140776183Y-83302916D01*
X140913502Y-83292200D01*
X141052408Y-83274341D01*
X141189727Y-83249338D01*
X141189727Y-81788837D01*
X141396102Y-81788837D01*
X141415251Y-82003150D01*
X141437774Y-82211112D01*
X141463670Y-82412725D01*
X141492939Y-82607987D01*
X141535802Y-82853521D01*
X141581839Y-83077887D01*
X141631052Y-83281087D01*
X141926327Y-83281087D01*
X141991414Y-83100113D01*
X142048564Y-82939775D01*
X142102539Y-82777850D01*
X142158102Y-82592113D01*
X142215252Y-82774675D01*
X142267639Y-82935012D01*
X142323202Y-83096938D01*
X142393052Y-83281087D01*
X142688327Y-83281087D01*
X142725236Y-83133847D01*
X142759764Y-82971525D01*
X142791911Y-82796106D01*
X142821677Y-82609575D01*
X142832406Y-82531787D01*
X143037577Y-82531787D01*
X143050277Y-82701253D01*
X143088377Y-82854050D01*
X143149496Y-82988591D01*
X143231252Y-83103287D01*
X143332455Y-83196156D01*
X143451914Y-83265212D01*
X143588042Y-83308075D01*
X143739252Y-83322363D01*
X143890461Y-83308075D01*
X144026589Y-83265212D01*
X144146446Y-83196156D01*
X144248839Y-83103287D01*
X144331786Y-82988591D01*
X144393302Y-82854050D01*
X144431402Y-82701253D01*
X144443864Y-82534962D01*
X144631427Y-82534962D01*
X144643333Y-82704428D01*
X144679052Y-82857225D01*
X144737789Y-82990972D01*
X144818752Y-83103287D01*
X144921146Y-83193378D01*
X145044177Y-83260450D01*
X145187052Y-83302122D01*
X145348977Y-83316012D01*
X145502964Y-83310456D01*
X145660127Y-83293788D01*
X145733155Y-83281087D01*
X146311002Y-83281087D01*
X146701527Y-83281087D01*
X146701527Y-82490512D01*
X146713433Y-82310331D01*
X146749152Y-82188887D01*
X146942827Y-82096812D01*
X147030139Y-82099987D01*
X147120627Y-82109512D01*
X147120627Y-83281087D01*
X147511152Y-83281087D01*
X147511152Y-83217587D01*
X147815952Y-83217587D01*
X148042964Y-83295375D01*
X148238227Y-83316012D01*
X148378324Y-83304900D01*
X148493814Y-83271563D01*
X148526428Y-83246162D01*
X149486002Y-83246162D01*
X149740002Y-83290612D01*
X149918596Y-83309663D01*
X150117827Y-83316012D01*
X150376589Y-83290612D01*
X150399054Y-83281087D01*
X150921102Y-83281087D01*
X151330677Y-83281087D01*
X151409655Y-83094159D01*
X151500539Y-82914375D01*
X151600949Y-82736972D01*
X151708502Y-82557187D01*
X151911702Y-82557187D01*
X151911702Y-83281087D01*
X152302227Y-83281087D01*
X152302227Y-81344337D01*
X152176814Y-81320525D01*
X152038702Y-81304650D01*
X151905352Y-81296712D01*
X151794227Y-81293537D01*
X151633889Y-81303062D01*
X151489427Y-81331637D01*
X151362427Y-81380056D01*
X151254477Y-81449112D01*
X151103664Y-81650725D01*
X151064374Y-81783678D01*
X151051277Y-81938062D01*
X151068739Y-82101575D01*
X151121127Y-82249212D01*
X151213996Y-82372244D01*
X151352902Y-82461937D01*
X151238602Y-82644500D01*
X151121127Y-82854050D01*
X151011589Y-83073125D01*
X150921102Y-83281087D01*
X150399054Y-83281087D01*
X150575027Y-83206475D01*
X150702027Y-83054075D01*
X150746477Y-82823887D01*
X150695677Y-82604812D01*
X150559152Y-82461937D01*
X150362302Y-82384150D01*
X150130527Y-82360337D01*
X149986858Y-82366687D01*
X149860652Y-82385737D01*
X149860652Y-82338112D01*
X149930502Y-82152375D01*
X150025752Y-82096416D01*
X150171802Y-82077762D01*
X150386114Y-82093637D01*
X150552802Y-82131737D01*
X150606777Y-81817412D01*
X150400402Y-81771375D01*
X150264671Y-81755897D01*
X150124177Y-81750737D01*
X149955505Y-81761453D01*
X149817789Y-81793600D01*
X149622527Y-81914250D01*
X149517752Y-82104750D01*
X149486002Y-82357162D01*
X149486002Y-83246162D01*
X148526428Y-83246162D01*
X148658914Y-83142975D01*
X148746227Y-82938188D01*
X148765277Y-82808806D01*
X148771627Y-82661962D01*
X148771627Y-82112687D01*
X149184377Y-82112687D01*
X149184377Y-81788837D01*
X148381102Y-81788837D01*
X148381102Y-82712762D01*
X148331889Y-82911200D01*
X148168377Y-82976287D01*
X148038202Y-82962000D01*
X147866752Y-82903262D01*
X147815952Y-83217587D01*
X147511152Y-83217587D01*
X147511152Y-81836462D01*
X147394074Y-81808681D01*
X147252389Y-81782487D01*
X147091655Y-81763437D01*
X146917427Y-81757087D01*
X146754708Y-81769391D01*
X146622152Y-81806300D01*
X146436414Y-81946000D01*
X146339577Y-82161900D01*
X146318146Y-82294059D01*
X146311002Y-82439712D01*
X146311002Y-83281087D01*
X145733155Y-83281087D01*
X145806177Y-83268387D01*
X145926827Y-83236638D01*
X145926827Y-81360212D01*
X148396977Y-81360212D01*
X148470002Y-81541187D01*
X148644627Y-81607862D01*
X148817664Y-81541187D01*
X148889102Y-81360212D01*
X148817664Y-81176062D01*
X148644627Y-81109387D01*
X148470002Y-81176062D01*
X148396977Y-81360212D01*
X145926827Y-81360212D01*
X145926827Y-81144312D01*
X145536302Y-81077637D01*
X145536302Y-81823762D01*
X145377552Y-81771375D01*
X145225152Y-81757087D01*
X145087833Y-81770978D01*
X144967977Y-81812650D01*
X144782239Y-81971400D01*
X144716755Y-82084509D01*
X144669527Y-82217462D01*
X144640952Y-82368275D01*
X144631427Y-82534962D01*
X144443864Y-82534962D01*
X144444102Y-82531787D01*
X144431005Y-82364703D01*
X144391714Y-82212700D01*
X144329008Y-82078556D01*
X144245664Y-81965050D01*
X144142874Y-81873769D01*
X144021827Y-81806300D01*
X143886096Y-81764628D01*
X143739252Y-81750737D01*
X143590424Y-81764628D01*
X143455089Y-81806300D01*
X143335233Y-81873769D01*
X143232839Y-81965050D01*
X143149892Y-82078556D01*
X143088377Y-82212700D01*
X143050277Y-82364703D01*
X143037577Y-82531787D01*
X142832406Y-82531787D01*
X142848664Y-82413916D01*
X142872477Y-82211112D01*
X142893908Y-82002356D01*
X142913752Y-81788837D01*
X142580377Y-81788837D01*
X142571734Y-81971576D01*
X142562738Y-82151493D01*
X142553389Y-82328587D01*
X142541218Y-82506035D01*
X142523756Y-82687010D01*
X142501002Y-82871512D01*
X142429564Y-82647675D01*
X142375589Y-82450825D01*
X142331139Y-82269850D01*
X142288277Y-82090462D01*
X142005702Y-82090462D01*
X141966014Y-82269850D01*
X141921564Y-82450825D01*
X141870764Y-82647675D01*
X141805677Y-82871512D01*
X141788214Y-82728637D01*
X141773927Y-82592113D01*
X141762417Y-82459159D01*
X141753289Y-82327000D01*
X141740589Y-82063475D01*
X141735430Y-81928934D01*
X141729477Y-81788837D01*
X141396102Y-81788837D01*
X141189727Y-81788837D01*
X141189727Y-81341162D01*
X140945252Y-81307825D01*
X140681727Y-81293537D01*
X140480114Y-81305047D01*
X140319777Y-81339575D01*
X140100702Y-81460225D01*
X139992752Y-81626912D01*
X139964177Y-81811062D01*
X139981242Y-81942825D01*
X140032439Y-82058712D01*
X140215002Y-82230162D01*
X140047124Y-82315887D01*
X139943539Y-82427012D01*
X139889961Y-82554013D01*
X139872102Y-82687362D01*
X139246627Y-82687362D01*
X139246627Y-81420537D01*
X139659377Y-81420537D01*
X139659377Y-81096687D01*
X138856102Y-81096687D01*
X138856102Y-82715938D01*
X138795777Y-82922312D01*
X138643377Y-82976287D01*
X138446527Y-82944537D01*
X138341752Y-82903262D01*
X138290952Y-83217587D01*
X137848819Y-83217587D01*
X137875027Y-83206475D01*
X138002027Y-83054075D01*
X138046477Y-82823887D01*
X137995677Y-82604812D01*
X137859152Y-82461937D01*
X137662302Y-82384150D01*
X137430527Y-82360337D01*
X137286858Y-82366687D01*
X137160652Y-82385737D01*
X137160652Y-82338112D01*
X137230502Y-82152375D01*
X137325752Y-82096416D01*
X137471802Y-82077762D01*
X137686114Y-82093637D01*
X137852802Y-82131737D01*
X137906777Y-81817412D01*
X137700402Y-81771375D01*
X137564671Y-81755897D01*
X137424177Y-81750737D01*
X137255505Y-81761453D01*
X137117789Y-81793600D01*
X136922527Y-81914250D01*
X136817752Y-82104750D01*
X136786002Y-82357162D01*
X136786002Y-83246162D01*
X136278258Y-83246162D01*
X136427227Y-83192187D01*
X136366902Y-82865163D01*
X136130364Y-82947712D01*
X135874777Y-82985812D01*
X135655702Y-82965175D01*
X135579502Y-82881037D01*
X135603314Y-82811187D01*
X135669989Y-82761975D01*
X135768414Y-82722287D01*
X135884302Y-82684187D01*
X136058927Y-82625450D01*
X136220852Y-82541313D01*
X136341502Y-82412725D01*
X136389127Y-82217462D01*
X136352614Y-82038075D01*
X136238314Y-81888850D01*
X136039877Y-81787250D01*
X135907321Y-81759866D01*
X135750952Y-81750737D01*
X135610061Y-81756294D01*
X135479489Y-81772962D01*
X135262002Y-81836462D01*
X135322327Y-82166662D01*
X135490602Y-82114275D01*
X135747777Y-82077762D01*
X135949389Y-82114275D01*
X136001777Y-82192062D01*
X135977964Y-82253975D01*
X135914464Y-82303187D01*
X135822389Y-82346050D01*
X135709677Y-82385737D01*
X135531877Y-82449237D01*
X135365189Y-82536550D01*
X135242952Y-82669900D01*
X135195327Y-82868337D01*
X134549122Y-82868337D01*
X134557152Y-82725463D01*
X134557152Y-82112687D01*
X134896877Y-82112687D01*
X134896877Y-81788837D01*
X134557152Y-81788837D01*
X134557152Y-81414187D01*
X134166627Y-81350687D01*
X134166627Y-81788837D01*
X133541152Y-81788837D01*
X133541152Y-82112687D01*
X134166627Y-82112687D01*
X134166627Y-82715938D01*
X134150752Y-82849287D01*
X134106302Y-82928662D01*
X134036452Y-82966762D01*
X133944377Y-82976287D01*
X133844364Y-82973113D01*
X133755464Y-82962000D01*
X133666564Y-82938188D01*
X133566552Y-82896912D01*
X133512577Y-83233463D01*
X132923613Y-83233463D01*
X132987114Y-83205681D01*
X133104589Y-83120750D01*
X133198649Y-83012403D01*
X133268102Y-82881037D01*
X133310964Y-82726256D01*
X133325252Y-82547662D01*
X133310171Y-82362719D01*
X133264927Y-82201587D01*
X133195077Y-82064666D01*
X133106177Y-81952350D01*
X133000608Y-81864641D01*
X132880752Y-81801537D01*
X132752164Y-81763437D01*
X132620402Y-81750737D01*
X132417907Y-81772433D01*
X132250691Y-81837521D01*
X132118752Y-81946000D01*
X132023502Y-82096107D01*
X131966352Y-82286078D01*
X131947302Y-82515913D01*
X131553602Y-82515913D01*
X131553602Y-81887262D01*
X131396042Y-81835669D01*
X131234514Y-81795187D01*
X131057111Y-81768994D01*
X130851927Y-81760262D01*
X130761439Y-81763437D01*
X130636027Y-81774550D01*
X130501089Y-81793600D01*
X130378852Y-81823762D01*
X129069376Y-81823762D01*
X128647101Y-80416179D01*
G37*
G36*
X137468627Y-82641325D02*
G01*
X137568639Y-82668313D01*
X137636902Y-82722287D01*
X137662302Y-82814363D01*
X137586102Y-82958825D01*
X137389252Y-83001687D01*
X137265427Y-83000100D01*
X137160652Y-82992162D01*
X137160652Y-82649262D01*
X137252727Y-82638150D01*
X137351152Y-82633387D01*
X137468627Y-82641325D01*
G37*
G36*
X140713477Y-81636437D02*
G01*
X140799202Y-81645962D01*
X140799202Y-82096812D01*
X140646802Y-82096812D01*
X140421377Y-82031725D01*
X140345177Y-81852337D01*
X140367402Y-81739625D01*
X140427727Y-81672950D01*
X140516627Y-81641200D01*
X140621402Y-81633262D01*
X140713477Y-81636437D01*
G37*
G36*
X143872999Y-82121022D02*
G01*
X143969439Y-82212700D01*
X144027780Y-82354384D01*
X144047227Y-82534962D01*
X144029367Y-82715938D01*
X143975789Y-82858812D01*
X143882524Y-82951681D01*
X143745602Y-82982637D01*
X143611855Y-82951681D01*
X143515414Y-82858812D01*
X143457074Y-82715938D01*
X143437627Y-82534962D01*
X143455486Y-82354384D01*
X143509064Y-82212700D01*
X143602330Y-82121022D01*
X143739252Y-82090462D01*
X143872999Y-82121022D01*
G37*
%TD*%
%LPC*%
D12*
%TO.C,J2*%
X171300000Y-88800000D03*
D13*
X171300000Y-86260000D03*
X171300000Y-83720000D03*
X171300000Y-81180000D03*
%TD*%
D12*
%TO.C,J1*%
X121100000Y-88800000D03*
D13*
X121100000Y-86260000D03*
X121100000Y-83720000D03*
X121100000Y-81180000D03*
%TD*%
M02*
