M48
; DRILL file {KiCad (6.0.0-0)} date Wednesday, September 07, 2022 at 11:26:37 AM
; FORMAT={-:-/ absolute / inch / decimal}
; #@! TF.CreationDate,2022-09-07T11:26:37-07:00
; #@! TF.GenerationSoftware,Kicad,Pcbnew,(6.0.0-0)
; #@! TF.FileFunction,Plated,1,2,PTH
FMAT,2
INCH
; #@! TA.AperFunction,Plated,PTH,ViaDrill
T1C0.0157
; #@! TA.AperFunction,Plated,PTH,ComponentDrill
T2C0.0394
%
G90
G05
T1
X5.1299Y-3.3712
X5.1929Y-3.3701
X5.2205Y-3.3346
X5.3031Y-3.3425
X5.3583Y-3.248
X5.4685Y-3.2323
X5.4685Y-3.5079
X5.7717Y-3.371
X5.8346Y-3.371
X5.8769Y-3.3138
X5.9882Y-3.3307
X6.0Y-3.2441
X6.1102Y-3.2323
X6.1142Y-3.5039
X6.4213Y-3.3701
X6.4843Y-3.3701
X6.521Y-3.3078
X6.6417Y-3.248
X6.6447Y-3.3031
T2
X4.7677Y-3.1961
X4.7677Y-3.2961
X4.7677Y-3.3961
X4.7677Y-3.4961
X6.7441Y-3.1961
X6.7441Y-3.2961
X6.7441Y-3.3961
X6.7441Y-3.4961
T0
M30
