%TF.GenerationSoftware,KiCad,Pcbnew,(6.0.0-0)*%
%TF.CreationDate,2022-09-07T11:26:37-07:00*%
%TF.ProjectId,RainbowBlaster,5261696e-626f-4774-926c-61737465722e,rev?*%
%TF.SameCoordinates,Original*%
%TF.FileFunction,Copper,L1,Top*%
%TF.FilePolarity,Positive*%
%FSLAX46Y46*%
G04 Gerber Fmt 4.6, Leading zero omitted, Abs format (unit mm)*
G04 Created by KiCad (PCBNEW (6.0.0-0)) date 2022-09-07 11:26:37*
%MOMM*%
%LPD*%
G01*
G04 APERTURE LIST*
G04 Aperture macros list*
%AMRoundRect*
0 Rectangle with rounded corners*
0 $1 Rounding radius*
0 $2 $3 $4 $5 $6 $7 $8 $9 X,Y pos of 4 corners*
0 Add a 4 corners polygon primitive as box body*
4,1,4,$2,$3,$4,$5,$6,$7,$8,$9,$2,$3,0*
0 Add four circle primitives for the rounded corners*
1,1,$1+$1,$2,$3*
1,1,$1+$1,$4,$5*
1,1,$1+$1,$6,$7*
1,1,$1+$1,$8,$9*
0 Add four rect primitives between the rounded corners*
20,1,$1+$1,$2,$3,$4,$5,0*
20,1,$1+$1,$4,$5,$6,$7,0*
20,1,$1+$1,$6,$7,$8,$9,0*
20,1,$1+$1,$8,$9,$2,$3,0*%
G04 Aperture macros list end*
%TA.AperFunction,SMDPad,CuDef*%
%ADD10RoundRect,0.150000X-0.725000X-0.150000X0.725000X-0.150000X0.725000X0.150000X-0.725000X0.150000X0*%
%TD*%
%TA.AperFunction,SMDPad,CuDef*%
%ADD11RoundRect,0.200000X-0.275000X0.200000X-0.275000X-0.200000X0.275000X-0.200000X0.275000X0.200000X0*%
%TD*%
%TA.AperFunction,SMDPad,CuDef*%
%ADD12R,2.200000X2.200000*%
%TD*%
%TA.AperFunction,SMDPad,CuDef*%
%ADD13R,1.250000X2.200000*%
%TD*%
%TA.AperFunction,SMDPad,CuDef*%
%ADD14RoundRect,0.225000X-0.250000X0.225000X-0.250000X-0.225000X0.250000X-0.225000X0.250000X0.225000X0*%
%TD*%
%TA.AperFunction,SMDPad,CuDef*%
%ADD15RoundRect,0.200000X0.275000X-0.200000X0.275000X0.200000X-0.275000X0.200000X-0.275000X-0.200000X0*%
%TD*%
%TA.AperFunction,SMDPad,CuDef*%
%ADD16R,1.600000X0.850000*%
%TD*%
%TA.AperFunction,SMDPad,CuDef*%
%ADD17RoundRect,0.225000X0.250000X-0.225000X0.250000X0.225000X-0.250000X0.225000X-0.250000X-0.225000X0*%
%TD*%
%TA.AperFunction,ComponentPad*%
%ADD18R,1.700000X1.700000*%
%TD*%
%TA.AperFunction,ComponentPad*%
%ADD19O,1.700000X1.700000*%
%TD*%
%TA.AperFunction,ViaPad*%
%ADD20C,0.800000*%
%TD*%
%TA.AperFunction,Conductor*%
%ADD21C,0.250000*%
%TD*%
%TA.AperFunction,Conductor*%
%ADD22C,0.500000*%
%TD*%
G04 APERTURE END LIST*
D10*
%TO.P,U2,1,OUTR*%
%TO.N,Net-(D6-Pad1)*%
X145375000Y-81045000D03*
%TO.P,U2,2,OUTG*%
%TO.N,Net-(D7-Pad1)*%
X145375000Y-82315000D03*
%TO.P,U2,3,OUTB*%
%TO.N,Net-(D8-Pad1)*%
X145375000Y-83585000D03*
%TO.P,U2,4,GND*%
%TO.N,GND*%
X145375000Y-84855000D03*
%TO.P,U2,5,DO*%
%TO.N,Net-(U2-Pad5)*%
X150525000Y-84855000D03*
%TO.P,U2,6,DIN*%
%TO.N,Net-(U1-Pad5)*%
X150525000Y-83585000D03*
%TO.P,U2,7,SET*%
%TO.N,unconnected-(U2-Pad7)*%
X150525000Y-82315000D03*
%TO.P,U2,8,VDD*%
%TO.N,Net-(C4-Pad2)*%
X150525000Y-81045000D03*
%TD*%
D11*
%TO.P,R1,1*%
%TO.N,Net-(R1-Pad1)*%
X136100000Y-84075000D03*
%TO.P,R1,2*%
%TO.N,D2_IN*%
X136100000Y-85725000D03*
%TD*%
D12*
%TO.P,D10,1,K*%
%TO.N,Net-(D10-Pad1)*%
X158900000Y-81700000D03*
D13*
%TO.P,D10,2,A*%
%TO.N,+5V*%
X156625000Y-81700000D03*
%TD*%
D14*
%TO.P,C1,1*%
%TO.N,GND*%
X134500000Y-87525000D03*
%TO.P,C1,2*%
%TO.N,+5V*%
X134500000Y-89075000D03*
%TD*%
D12*
%TO.P,D2,1,K*%
%TO.N,Net-(D2-Pad1)*%
X126200000Y-81700000D03*
D13*
%TO.P,D2,2,A*%
%TO.N,+5V*%
X123925000Y-81700000D03*
%TD*%
D15*
%TO.P,R3,1*%
%TO.N,+5V*%
X136100000Y-89125000D03*
%TO.P,R3,2*%
%TO.N,Net-(C2-Pad2)*%
X136100000Y-87475000D03*
%TD*%
D14*
%TO.P,C5,1*%
%TO.N,GND*%
X150900000Y-87425000D03*
%TO.P,C5,2*%
%TO.N,+5V*%
X150900000Y-88975000D03*
%TD*%
D10*
%TO.P,U3,1,OUTR*%
%TO.N,Net-(D10-Pad1)*%
X161675000Y-80945000D03*
%TO.P,U3,2,OUTG*%
%TO.N,Net-(D11-Pad1)*%
X161675000Y-82215000D03*
%TO.P,U3,3,OUTB*%
%TO.N,Net-(D12-Pad1)*%
X161675000Y-83485000D03*
%TO.P,U3,4,GND*%
%TO.N,GND*%
X161675000Y-84755000D03*
%TO.P,U3,5,DO*%
%TO.N,Net-(R5-Pad1)*%
X166825000Y-84755000D03*
%TO.P,U3,6,DIN*%
%TO.N,Net-(U2-Pad5)*%
X166825000Y-83485000D03*
%TO.P,U3,7,SET*%
%TO.N,unconnected-(U3-Pad7)*%
X166825000Y-82215000D03*
%TO.P,U3,8,VDD*%
%TO.N,Net-(C6-Pad2)*%
X166825000Y-80945000D03*
%TD*%
%TO.P,U1,1,OUTR*%
%TO.N,Net-(D2-Pad1)*%
X128925000Y-81095000D03*
%TO.P,U1,2,OUTG*%
%TO.N,Net-(D3-Pad1)*%
X128925000Y-82365000D03*
%TO.P,U1,3,OUTB*%
%TO.N,Net-(D4-Pad1)*%
X128925000Y-83635000D03*
%TO.P,U1,4,GND*%
%TO.N,GND*%
X128925000Y-84905000D03*
%TO.P,U1,5,DO*%
%TO.N,Net-(U1-Pad5)*%
X134075000Y-84905000D03*
%TO.P,U1,6,DIN*%
%TO.N,Net-(R1-Pad1)*%
X134075000Y-83635000D03*
%TO.P,U1,7,SET*%
%TO.N,unconnected-(U1-Pad7)*%
X134075000Y-82365000D03*
%TO.P,U1,8,VDD*%
%TO.N,Net-(C2-Pad2)*%
X134075000Y-81095000D03*
%TD*%
D16*
%TO.P,D5,1,VDD*%
%TO.N,+5V*%
X148950000Y-88575000D03*
%TO.P,D5,2,DOUT*%
%TO.N,Net-(D5-Pad2)*%
X148950000Y-86825000D03*
%TO.P,D5,3,VSS*%
%TO.N,GND*%
X145450000Y-86825000D03*
%TO.P,D5,4,DIN*%
%TO.N,Net-(D1-Pad2)*%
X145450000Y-88575000D03*
%TD*%
D17*
%TO.P,C2,1*%
%TO.N,GND*%
X136100000Y-82550000D03*
%TO.P,C2,2*%
%TO.N,Net-(C2-Pad2)*%
X136100000Y-81000000D03*
%TD*%
D18*
%TO.P,J2,1,Pin_1*%
%TO.N,+5V*%
X171300000Y-88800000D03*
D19*
%TO.P,J2,2,Pin_2*%
%TO.N,D1_OUT*%
X171300000Y-86260000D03*
%TO.P,J2,3,Pin_3*%
%TO.N,D2_OUT*%
X171300000Y-83720000D03*
%TO.P,J2,4,Pin_4*%
%TO.N,GND*%
X171300000Y-81180000D03*
%TD*%
D17*
%TO.P,C4,1*%
%TO.N,GND*%
X152500000Y-82475000D03*
%TO.P,C4,2*%
%TO.N,Net-(C4-Pad2)*%
X152500000Y-80925000D03*
%TD*%
D14*
%TO.P,C3,1*%
%TO.N,GND*%
X167150000Y-87350000D03*
%TO.P,C3,2*%
%TO.N,+5V*%
X167150000Y-88900000D03*
%TD*%
D12*
%TO.P,D7,1,K*%
%TO.N,Net-(D7-Pad1)*%
X142600000Y-85000000D03*
D13*
%TO.P,D7,2,A*%
%TO.N,+5V*%
X140325000Y-85000000D03*
%TD*%
D15*
%TO.P,R5,1*%
%TO.N,Net-(R5-Pad1)*%
X168700000Y-85525000D03*
%TO.P,R5,2*%
%TO.N,D2_OUT*%
X168700000Y-83875000D03*
%TD*%
D16*
%TO.P,D9,1,VDD*%
%TO.N,+5V*%
X165250000Y-88525000D03*
%TO.P,D9,2,DOUT*%
%TO.N,D1_OUT*%
X165250000Y-86775000D03*
%TO.P,D9,3,VSS*%
%TO.N,GND*%
X161750000Y-86775000D03*
%TO.P,D9,4,DIN*%
%TO.N,Net-(D5-Pad2)*%
X161750000Y-88525000D03*
%TD*%
D15*
%TO.P,R2,1*%
%TO.N,+5V*%
X152500000Y-89025000D03*
%TO.P,R2,2*%
%TO.N,Net-(C4-Pad2)*%
X152500000Y-87375000D03*
%TD*%
D12*
%TO.P,D11,1,K*%
%TO.N,Net-(D11-Pad1)*%
X158900000Y-85000000D03*
D13*
%TO.P,D11,2,A*%
%TO.N,+5V*%
X156625000Y-85000000D03*
%TD*%
D17*
%TO.P,C6,1*%
%TO.N,GND*%
X168700000Y-82400000D03*
%TO.P,C6,2*%
%TO.N,Net-(C6-Pad2)*%
X168700000Y-80850000D03*
%TD*%
D12*
%TO.P,D4,1,K*%
%TO.N,Net-(D4-Pad1)*%
X126200000Y-88300000D03*
D13*
%TO.P,D4,2,A*%
%TO.N,+5V*%
X123925000Y-88300000D03*
%TD*%
D12*
%TO.P,D8,1,K*%
%TO.N,Net-(D8-Pad1)*%
X142600000Y-88300000D03*
D13*
%TO.P,D8,2,A*%
%TO.N,+5V*%
X140325000Y-88300000D03*
%TD*%
D12*
%TO.P,D3,1,K*%
%TO.N,Net-(D3-Pad1)*%
X126200000Y-85000000D03*
D13*
%TO.P,D3,2,A*%
%TO.N,+5V*%
X123925000Y-85000000D03*
%TD*%
D18*
%TO.P,J1,1,Pin_1*%
%TO.N,+5V*%
X121100000Y-88800000D03*
D19*
%TO.P,J1,2,Pin_2*%
%TO.N,D1_IN*%
X121100000Y-86260000D03*
%TO.P,J1,3,Pin_3*%
%TO.N,D2_IN*%
X121100000Y-83720000D03*
%TO.P,J1,4,Pin_4*%
%TO.N,GND*%
X121100000Y-81180000D03*
%TD*%
D15*
%TO.P,R4,1*%
%TO.N,+5V*%
X168650000Y-88975000D03*
%TO.P,R4,2*%
%TO.N,Net-(C6-Pad2)*%
X168650000Y-87325000D03*
%TD*%
D12*
%TO.P,D6,1,K*%
%TO.N,Net-(D6-Pad1)*%
X142600000Y-81700000D03*
D13*
%TO.P,D6,2,A*%
%TO.N,+5V*%
X140325000Y-81700000D03*
%TD*%
D12*
%TO.P,D12,1,K*%
%TO.N,Net-(D12-Pad1)*%
X158900000Y-88300000D03*
D13*
%TO.P,D12,2,A*%
%TO.N,+5V*%
X156625000Y-88300000D03*
%TD*%
D16*
%TO.P,D1,1,VDD*%
%TO.N,+5V*%
X132550000Y-88625000D03*
%TO.P,D1,2,DOUT*%
%TO.N,Net-(D1-Pad2)*%
X132550000Y-86875000D03*
%TO.P,D1,3,VSS*%
%TO.N,GND*%
X129050000Y-86875000D03*
%TO.P,D1,4,DIN*%
%TO.N,D1_IN*%
X129050000Y-88625000D03*
%TD*%
D20*
%TO.N,GND*%
X168700000Y-82500000D03*
X136100000Y-82500000D03*
X138900000Y-82100000D03*
X152400000Y-82400000D03*
X155200000Y-82100000D03*
%TO.N,+5V*%
X155300000Y-89000000D03*
X138900000Y-89100000D03*
%TO.N,D1_IN*%
X130300000Y-85629500D03*
%TO.N,D1_OUT*%
X164700000Y-85600000D03*
%TO.N,D2_IN*%
X132600000Y-84700000D03*
%TO.N,D2_OUT*%
X168775020Y-83900000D03*
%TO.N,Net-(D1-Pad2)*%
X131900000Y-85600000D03*
X146600000Y-85624500D03*
%TO.N,Net-(D5-Pad2)*%
X148200000Y-85624500D03*
X163100000Y-85600000D03*
%TO.N,Net-(U1-Pad5)*%
X134700000Y-84900000D03*
X149274421Y-84170662D03*
%TO.N,Net-(U2-Pad5)*%
X165634634Y-84017475D03*
X152100000Y-84600000D03*
%TD*%
D21*
%TO.N,GND*%
X131524511Y-87624511D02*
X131100000Y-87200000D01*
X152035480Y-82939520D02*
X152500000Y-82475000D01*
X150900000Y-87425000D02*
X150750489Y-87574511D01*
X166975489Y-87524511D02*
X164125489Y-87524511D01*
X165160480Y-82839520D02*
X168360480Y-82839520D01*
X130600114Y-84905000D02*
X128925000Y-84905000D01*
X147400000Y-85399886D02*
X146855114Y-84855000D01*
X145375000Y-84855000D02*
X147565469Y-84855000D01*
X164125489Y-87524511D02*
X163900000Y-87299022D01*
X163279614Y-84755000D02*
X161675000Y-84755000D01*
X133174408Y-82989520D02*
X135660480Y-82989520D01*
X161750000Y-86775000D02*
X161750000Y-84830000D01*
X152500000Y-82475000D02*
X152475000Y-82475000D01*
X168360480Y-82839520D02*
X168700000Y-82500000D01*
X145375000Y-84855000D02*
X145375000Y-86750000D01*
X131258928Y-84905000D02*
X133174408Y-82989520D01*
X135660480Y-82989520D02*
X136100000Y-82550000D01*
X134500000Y-87525000D02*
X134400489Y-87624511D01*
X131100000Y-87200000D02*
X131100000Y-85404886D01*
X134400489Y-87624511D02*
X131524511Y-87624511D01*
X136100000Y-82550000D02*
X136100000Y-82500000D01*
X163900000Y-85375386D02*
X163279614Y-84755000D01*
X131100000Y-85404886D02*
X130600114Y-84905000D01*
X147565469Y-84855000D02*
X149480949Y-82939520D01*
X149480949Y-82939520D02*
X152035480Y-82939520D01*
X129050000Y-86875000D02*
X129050000Y-85030000D01*
X128925000Y-84905000D02*
X131258928Y-84905000D01*
X129050000Y-85030000D02*
X128925000Y-84905000D01*
X161675000Y-84755000D02*
X163245000Y-84755000D01*
X147400000Y-87149022D02*
X147400000Y-85399886D01*
X146855114Y-84855000D02*
X145375000Y-84855000D01*
X163245000Y-84755000D02*
X165160480Y-82839520D01*
X161750000Y-84830000D02*
X161675000Y-84755000D01*
X163900000Y-87299022D02*
X163900000Y-85375386D01*
X147825489Y-87574511D02*
X147400000Y-87149022D01*
X145375000Y-86750000D02*
X145450000Y-86825000D01*
X150750489Y-87574511D02*
X147825489Y-87574511D01*
X152475000Y-82475000D02*
X152400000Y-82400000D01*
X167150000Y-87350000D02*
X166975489Y-87524511D01*
D22*
%TO.N,+5V*%
X155275000Y-89025000D02*
X155300000Y-89000000D01*
X148950000Y-88575000D02*
X150500000Y-88575000D01*
X123925000Y-81700000D02*
X123925000Y-85000000D01*
X152500000Y-89025000D02*
X150950000Y-89025000D01*
X134050000Y-88625000D02*
X134500000Y-89075000D01*
X156625000Y-85000000D02*
X156625000Y-88300000D01*
X136100000Y-89125000D02*
X138875000Y-89125000D01*
X171099980Y-88975000D02*
X171099980Y-88800000D01*
X150500000Y-88575000D02*
X150900000Y-88975000D01*
X123925000Y-85000000D02*
X123925000Y-88300000D01*
X136050000Y-89075000D02*
X136100000Y-89125000D01*
X150950000Y-89025000D02*
X150900000Y-88975000D01*
X140325000Y-85000000D02*
X140325000Y-88300000D01*
X152500000Y-89025000D02*
X155275000Y-89025000D01*
X121850020Y-88300000D02*
X121350020Y-88800000D01*
X134500000Y-89075000D02*
X136050000Y-89075000D01*
X156625000Y-81700000D02*
X156625000Y-85000000D01*
X140325000Y-88300000D02*
X139700000Y-88300000D01*
X140325000Y-81700000D02*
X140325000Y-85000000D01*
X138875000Y-89125000D02*
X138900000Y-89100000D01*
X168650000Y-88975000D02*
X171099980Y-88975000D01*
X156000000Y-88300000D02*
X155300000Y-89000000D01*
X156625000Y-88300000D02*
X156000000Y-88300000D01*
X123925000Y-88300000D02*
X121850020Y-88300000D01*
X167150000Y-88900000D02*
X168575000Y-88900000D01*
X139700000Y-88300000D02*
X138900000Y-89100000D01*
X132550000Y-88625000D02*
X134050000Y-88625000D01*
X166775000Y-88525000D02*
X167150000Y-88900000D01*
X168575000Y-88900000D02*
X168650000Y-88975000D01*
X165250000Y-88525000D02*
X166775000Y-88525000D01*
D21*
%TO.N,Net-(C2-Pad2)*%
X136899520Y-81799520D02*
X136899520Y-86675480D01*
X136100000Y-81000000D02*
X134170000Y-81000000D01*
X136100000Y-81000000D02*
X136899520Y-81799520D01*
X136899520Y-86675480D02*
X136100000Y-87475000D01*
X134170000Y-81000000D02*
X134075000Y-81095000D01*
%TO.N,D1_IN*%
X130300000Y-87375000D02*
X130300000Y-85629500D01*
X129050000Y-88625000D02*
X130300000Y-87375000D01*
%TO.N,D1_OUT*%
X165250000Y-86150000D02*
X164700000Y-85600000D01*
X165250000Y-86775000D02*
X165250000Y-86150000D01*
%TO.N,Net-(D2-Pad1)*%
X128730000Y-80900000D02*
X128925000Y-81095000D01*
X126200000Y-81700000D02*
X127000000Y-80900000D01*
X127000000Y-80900000D02*
X128730000Y-80900000D01*
%TO.N,Net-(D3-Pad1)*%
X127624511Y-83575489D02*
X127624511Y-82775489D01*
X128035000Y-82365000D02*
X128925000Y-82365000D01*
X127624511Y-82775489D02*
X128035000Y-82365000D01*
X126200000Y-85000000D02*
X127624511Y-83575489D01*
%TO.N,Net-(D4-Pad1)*%
X127624511Y-86875489D02*
X127624511Y-84275489D01*
X128265000Y-83635000D02*
X128925000Y-83635000D01*
X126200000Y-88300000D02*
X127624511Y-86875489D01*
X127624511Y-84275489D02*
X128265000Y-83635000D01*
%TO.N,D2_IN*%
X136100000Y-85725000D02*
X133348928Y-85725000D01*
X132600000Y-84976072D02*
X132600000Y-84700000D01*
X133348928Y-85725000D02*
X132600000Y-84976072D01*
%TO.N,D2_OUT*%
X168750020Y-83875000D02*
X168775020Y-83900000D01*
X168700000Y-83875000D02*
X168750020Y-83875000D01*
%TO.N,Net-(R1-Pad1)*%
X136100000Y-84075000D02*
X135675000Y-84075000D01*
X135675000Y-84075000D02*
X135235000Y-83635000D01*
X135235000Y-83635000D02*
X134075000Y-83635000D01*
%TO.N,Net-(C4-Pad2)*%
X150525000Y-81045000D02*
X152380000Y-81045000D01*
X153299520Y-81724520D02*
X152500000Y-80925000D01*
X152380000Y-81045000D02*
X152500000Y-80925000D01*
X152500000Y-87375000D02*
X153299520Y-86575480D01*
X153299520Y-86575480D02*
X153299520Y-81724520D01*
%TO.N,Net-(C6-Pad2)*%
X169499520Y-86475480D02*
X169499520Y-81649520D01*
X166825000Y-80945000D02*
X168605000Y-80945000D01*
X168650000Y-87325000D02*
X169499520Y-86475480D01*
X168605000Y-80945000D02*
X168700000Y-80850000D01*
X169499520Y-81649520D02*
X168700000Y-80850000D01*
%TO.N,Net-(D1-Pad2)*%
X132550000Y-86250000D02*
X131900000Y-85600000D01*
X146600000Y-87425000D02*
X145450000Y-88575000D01*
X146600000Y-85624500D02*
X146600000Y-87425000D01*
X132550000Y-86875000D02*
X132550000Y-86250000D01*
%TO.N,Net-(D5-Pad2)*%
X148950000Y-86825000D02*
X148950000Y-86374500D01*
X163100000Y-85600000D02*
X163100000Y-87175000D01*
X163100000Y-87175000D02*
X161750000Y-88525000D01*
X148950000Y-86374500D02*
X148200000Y-85624500D01*
%TO.N,Net-(D6-Pad1)*%
X142600000Y-81700000D02*
X143255000Y-81045000D01*
X143255000Y-81045000D02*
X145375000Y-81045000D01*
%TO.N,Net-(D7-Pad1)*%
X142600000Y-85000000D02*
X144024511Y-83575489D01*
X144024511Y-83575489D02*
X144024511Y-83389417D01*
X145098928Y-82315000D02*
X145375000Y-82315000D01*
X144024511Y-83389417D02*
X145098928Y-82315000D01*
%TO.N,Net-(D8-Pad1)*%
X144024511Y-84575489D02*
X145015000Y-83585000D01*
X145015000Y-83585000D02*
X145375000Y-83585000D01*
X142600000Y-88300000D02*
X144024511Y-86875489D01*
X144024511Y-86875489D02*
X144024511Y-84575489D01*
%TO.N,Net-(D10-Pad1)*%
X159655000Y-80945000D02*
X161675000Y-80945000D01*
X158900000Y-81700000D02*
X159655000Y-80945000D01*
%TO.N,Net-(D11-Pad1)*%
X160324511Y-82675489D02*
X160785000Y-82215000D01*
X158900000Y-85000000D02*
X160324511Y-83575489D01*
X160324511Y-83575489D02*
X160324511Y-82675489D01*
X160785000Y-82215000D02*
X161675000Y-82215000D01*
%TO.N,Net-(D12-Pad1)*%
X158900000Y-88300000D02*
X160324511Y-86875489D01*
X160324511Y-84559417D02*
X161398928Y-83485000D01*
X160324511Y-86875489D02*
X160324511Y-84559417D01*
X161398928Y-83485000D02*
X161675000Y-83485000D01*
%TO.N,Net-(R5-Pad1)*%
X167930000Y-84755000D02*
X168700000Y-85525000D01*
X166825000Y-84755000D02*
X167930000Y-84755000D01*
%TO.N,Net-(U1-Pad5)*%
X149939338Y-84170662D02*
X150525000Y-83585000D01*
X149274421Y-84170662D02*
X149939338Y-84170662D01*
X134075000Y-84905000D02*
X134695000Y-84905000D01*
X134695000Y-84905000D02*
X134700000Y-84900000D01*
%TO.N,Net-(U2-Pad5)*%
X166292525Y-84017475D02*
X166825000Y-83485000D01*
X150525000Y-84855000D02*
X151845000Y-84855000D01*
X165634634Y-84017475D02*
X166292525Y-84017475D01*
X151845000Y-84855000D02*
X152100000Y-84600000D01*
%TD*%
%TA.AperFunction,Conductor*%
%TO.N,GND*%
G36*
X131151075Y-86152097D02*
G01*
X131206917Y-86187984D01*
X131225044Y-86208116D01*
X131255761Y-86272124D01*
X131250631Y-86324071D01*
X131252856Y-86324600D01*
X131251029Y-86332285D01*
X131248255Y-86339684D01*
X131241500Y-86401866D01*
X131241500Y-87348134D01*
X131248255Y-87410316D01*
X131299385Y-87546705D01*
X131386739Y-87663261D01*
X131387974Y-87664187D01*
X131420208Y-87723217D01*
X131415143Y-87794032D01*
X131388586Y-87835355D01*
X131386739Y-87836739D01*
X131299385Y-87953295D01*
X131248255Y-88089684D01*
X131241500Y-88151866D01*
X131241500Y-89098134D01*
X131248255Y-89160316D01*
X131251029Y-89167715D01*
X131283335Y-89253891D01*
X131299385Y-89296705D01*
X131304768Y-89303888D01*
X131305646Y-89305491D01*
X131320815Y-89374848D01*
X131296079Y-89441396D01*
X131239291Y-89484006D01*
X131195126Y-89492000D01*
X130404874Y-89492000D01*
X130336753Y-89471998D01*
X130290260Y-89418342D01*
X130280156Y-89348068D01*
X130294354Y-89305491D01*
X130295232Y-89303888D01*
X130300615Y-89296705D01*
X130316666Y-89253891D01*
X130348971Y-89167715D01*
X130351745Y-89160316D01*
X130358500Y-89098134D01*
X130358500Y-88264595D01*
X130378502Y-88196474D01*
X130395405Y-88175500D01*
X130692253Y-87878652D01*
X130700539Y-87871112D01*
X130707018Y-87867000D01*
X130717304Y-87856047D01*
X130753643Y-87817349D01*
X130756398Y-87814507D01*
X130776135Y-87794770D01*
X130778615Y-87791573D01*
X130786320Y-87782551D01*
X130795453Y-87772825D01*
X130816586Y-87750321D01*
X130820405Y-87743375D01*
X130820407Y-87743372D01*
X130826348Y-87732566D01*
X130837199Y-87716047D01*
X130840768Y-87711446D01*
X130849614Y-87700041D01*
X130852759Y-87692772D01*
X130852762Y-87692768D01*
X130867174Y-87659463D01*
X130872391Y-87648813D01*
X130893695Y-87610060D01*
X130898733Y-87590437D01*
X130905137Y-87571734D01*
X130910033Y-87560420D01*
X130910033Y-87560419D01*
X130913181Y-87553145D01*
X130914420Y-87545322D01*
X130914423Y-87545312D01*
X130920099Y-87509476D01*
X130922505Y-87497856D01*
X130931528Y-87462711D01*
X130931528Y-87462710D01*
X130933500Y-87455030D01*
X130933500Y-87434776D01*
X130935051Y-87415065D01*
X130936980Y-87402886D01*
X130938220Y-87395057D01*
X130934059Y-87351038D01*
X130933500Y-87339181D01*
X130933500Y-86332024D01*
X130953502Y-86263903D01*
X130965858Y-86247721D01*
X131019646Y-86187984D01*
X131080092Y-86150745D01*
X131151075Y-86152097D01*
G37*
%TD.AperFunction*%
%TA.AperFunction,Conductor*%
G36*
X147437793Y-86161846D02*
G01*
X147493635Y-86197733D01*
X147588747Y-86303366D01*
X147594092Y-86307250D01*
X147598997Y-86311666D01*
X147597114Y-86313757D01*
X147632910Y-86360167D01*
X147641500Y-86405893D01*
X147641500Y-87298134D01*
X147648255Y-87360316D01*
X147699385Y-87496705D01*
X147786739Y-87613261D01*
X147787974Y-87614187D01*
X147820208Y-87673217D01*
X147815143Y-87744032D01*
X147788586Y-87785355D01*
X147786739Y-87786739D01*
X147699385Y-87903295D01*
X147648255Y-88039684D01*
X147641500Y-88101866D01*
X147641500Y-89048134D01*
X147648255Y-89110316D01*
X147699385Y-89246705D01*
X147704771Y-89253891D01*
X147732159Y-89290435D01*
X147757007Y-89356941D01*
X147741954Y-89426324D01*
X147691780Y-89476554D01*
X147631333Y-89492000D01*
X146768667Y-89492000D01*
X146700546Y-89471998D01*
X146654053Y-89418342D01*
X146643949Y-89348068D01*
X146667841Y-89290435D01*
X146695229Y-89253891D01*
X146700615Y-89246705D01*
X146751745Y-89110316D01*
X146758500Y-89048134D01*
X146758500Y-88214594D01*
X146778502Y-88146473D01*
X146795405Y-88125499D01*
X146992247Y-87928657D01*
X147000537Y-87921113D01*
X147007018Y-87917000D01*
X147017304Y-87906047D01*
X147043029Y-87878652D01*
X147053659Y-87867332D01*
X147056413Y-87864491D01*
X147076135Y-87844769D01*
X147078612Y-87841576D01*
X147086317Y-87832555D01*
X147111159Y-87806100D01*
X147116586Y-87800321D01*
X147121391Y-87791581D01*
X147126346Y-87782568D01*
X147137202Y-87766041D01*
X147144757Y-87756302D01*
X147144758Y-87756300D01*
X147149614Y-87750040D01*
X147167174Y-87709460D01*
X147172391Y-87698812D01*
X147189875Y-87667009D01*
X147189876Y-87667007D01*
X147193695Y-87660060D01*
X147198733Y-87640437D01*
X147205137Y-87621734D01*
X147210033Y-87610420D01*
X147210033Y-87610419D01*
X147213181Y-87603145D01*
X147214420Y-87595322D01*
X147214423Y-87595312D01*
X147220099Y-87559476D01*
X147222505Y-87547856D01*
X147231528Y-87512711D01*
X147231528Y-87512710D01*
X147233500Y-87505030D01*
X147233500Y-87484776D01*
X147235051Y-87465065D01*
X147236980Y-87452886D01*
X147238220Y-87445057D01*
X147234059Y-87401038D01*
X147233500Y-87389181D01*
X147233500Y-86327024D01*
X147253502Y-86258903D01*
X147265864Y-86242714D01*
X147306364Y-86197734D01*
X147366810Y-86160494D01*
X147437793Y-86161846D01*
G37*
%TD.AperFunction*%
%TA.AperFunction,Conductor*%
G36*
X163889431Y-87258835D02*
G01*
X163943219Y-87305175D01*
X163955397Y-87329368D01*
X163996232Y-87438295D01*
X163999385Y-87446705D01*
X164086739Y-87563261D01*
X164087974Y-87564187D01*
X164120208Y-87623217D01*
X164115143Y-87694032D01*
X164088586Y-87735355D01*
X164086739Y-87736739D01*
X163999385Y-87853295D01*
X163948255Y-87989684D01*
X163941500Y-88051866D01*
X163941500Y-88998134D01*
X163948255Y-89060316D01*
X163999385Y-89196705D01*
X164069632Y-89290435D01*
X164094480Y-89356941D01*
X164079427Y-89426324D01*
X164029253Y-89476554D01*
X163968806Y-89492000D01*
X163031194Y-89492000D01*
X162963073Y-89471998D01*
X162916580Y-89418342D01*
X162906476Y-89348068D01*
X162930368Y-89290435D01*
X163000615Y-89196705D01*
X163051745Y-89060316D01*
X163058500Y-88998134D01*
X163058500Y-88164594D01*
X163078502Y-88096473D01*
X163095405Y-88075499D01*
X163492247Y-87678657D01*
X163500537Y-87671113D01*
X163507018Y-87667000D01*
X163518229Y-87655062D01*
X163553658Y-87617333D01*
X163556413Y-87614491D01*
X163576134Y-87594770D01*
X163578612Y-87591575D01*
X163586318Y-87582553D01*
X163611158Y-87556101D01*
X163616586Y-87550321D01*
X163626346Y-87532568D01*
X163637199Y-87516045D01*
X163644753Y-87506306D01*
X163649613Y-87500041D01*
X163667176Y-87459457D01*
X163672383Y-87448827D01*
X163693695Y-87410060D01*
X163695666Y-87402383D01*
X163695668Y-87402378D01*
X163698732Y-87390442D01*
X163705138Y-87371730D01*
X163705424Y-87371071D01*
X163713181Y-87353145D01*
X163714421Y-87345316D01*
X163716418Y-87338443D01*
X163754632Y-87278608D01*
X163819128Y-87248931D01*
X163889431Y-87258835D01*
G37*
%TD.AperFunction*%
%TA.AperFunction,Conductor*%
G36*
X139133621Y-80528002D02*
G01*
X139180114Y-80581658D01*
X139191500Y-80634000D01*
X139191500Y-82848134D01*
X139198255Y-82910316D01*
X139249385Y-83046705D01*
X139336739Y-83163261D01*
X139343919Y-83168642D01*
X139343920Y-83168643D01*
X139451372Y-83249174D01*
X139493887Y-83306033D01*
X139498913Y-83376852D01*
X139464853Y-83439145D01*
X139451372Y-83450826D01*
X139343920Y-83531357D01*
X139336739Y-83536739D01*
X139249385Y-83653295D01*
X139198255Y-83789684D01*
X139191500Y-83851866D01*
X139191500Y-86148134D01*
X139191869Y-86151531D01*
X139192061Y-86153295D01*
X139198255Y-86210316D01*
X139249385Y-86346705D01*
X139336739Y-86463261D01*
X139343919Y-86468642D01*
X139343920Y-86468643D01*
X139451372Y-86549174D01*
X139493887Y-86606033D01*
X139498913Y-86676852D01*
X139464853Y-86739145D01*
X139451372Y-86750826D01*
X139343995Y-86831301D01*
X139336739Y-86836739D01*
X139249385Y-86953295D01*
X139198255Y-87089684D01*
X139191500Y-87151866D01*
X139191500Y-87683623D01*
X139171498Y-87751744D01*
X139157127Y-87770112D01*
X139157026Y-87770219D01*
X139154494Y-87772825D01*
X138743669Y-88183650D01*
X138680772Y-88217801D01*
X138624176Y-88229831D01*
X138624167Y-88229834D01*
X138617712Y-88231206D01*
X138611682Y-88233891D01*
X138611681Y-88233891D01*
X138449278Y-88306197D01*
X138449276Y-88306198D01*
X138443248Y-88308882D01*
X138437907Y-88312762D01*
X138437906Y-88312763D01*
X138397065Y-88342436D01*
X138330197Y-88366294D01*
X138323004Y-88366500D01*
X136989710Y-88366500D01*
X136921589Y-88346498D01*
X136875096Y-88292842D01*
X136864992Y-88222568D01*
X136894486Y-88157988D01*
X136900615Y-88151405D01*
X136936639Y-88115381D01*
X137025472Y-87968699D01*
X137030300Y-87953295D01*
X137057238Y-87867333D01*
X137076753Y-87805062D01*
X137083500Y-87731635D01*
X137083499Y-87439595D01*
X137103501Y-87371476D01*
X137120404Y-87350500D01*
X137192297Y-87278608D01*
X137291778Y-87179127D01*
X137300057Y-87171593D01*
X137306538Y-87167480D01*
X137353164Y-87117828D01*
X137355918Y-87114987D01*
X137375655Y-87095250D01*
X137378135Y-87092053D01*
X137385840Y-87083031D01*
X137405872Y-87061699D01*
X137416106Y-87050801D01*
X137419925Y-87043855D01*
X137419927Y-87043852D01*
X137425868Y-87033046D01*
X137436719Y-87016527D01*
X137437913Y-87014987D01*
X137449134Y-87000521D01*
X137452279Y-86993252D01*
X137452282Y-86993248D01*
X137466694Y-86959943D01*
X137471911Y-86949293D01*
X137493215Y-86910540D01*
X137495788Y-86900521D01*
X137498253Y-86890918D01*
X137504657Y-86872214D01*
X137509553Y-86860900D01*
X137509553Y-86860899D01*
X137512701Y-86853625D01*
X137513940Y-86845802D01*
X137513943Y-86845792D01*
X137519619Y-86809956D01*
X137522025Y-86798336D01*
X137531048Y-86763191D01*
X137531048Y-86763190D01*
X137533020Y-86755510D01*
X137533020Y-86735256D01*
X137534571Y-86715545D01*
X137535541Y-86709424D01*
X137537740Y-86695537D01*
X137533579Y-86651518D01*
X137533020Y-86639661D01*
X137533020Y-81878287D01*
X137533547Y-81867104D01*
X137535222Y-81859611D01*
X137533082Y-81791534D01*
X137533020Y-81787575D01*
X137533020Y-81759664D01*
X137532515Y-81755664D01*
X137531582Y-81743821D01*
X137531216Y-81732156D01*
X137530193Y-81699631D01*
X137524541Y-81680177D01*
X137520533Y-81660820D01*
X137518988Y-81648590D01*
X137518988Y-81648589D01*
X137517994Y-81640723D01*
X137511623Y-81624631D01*
X137501716Y-81599608D01*
X137497871Y-81588378D01*
X137487749Y-81553537D01*
X137487749Y-81553536D01*
X137485538Y-81545927D01*
X137481505Y-81539108D01*
X137481503Y-81539103D01*
X137475227Y-81528492D01*
X137466532Y-81510744D01*
X137459072Y-81491903D01*
X137433084Y-81456133D01*
X137426568Y-81446213D01*
X137408100Y-81414985D01*
X137408098Y-81414982D01*
X137404062Y-81408158D01*
X137389741Y-81393837D01*
X137376900Y-81378803D01*
X137375102Y-81376328D01*
X137364992Y-81362413D01*
X137358887Y-81357362D01*
X137358882Y-81357357D01*
X137330922Y-81334226D01*
X137322144Y-81326239D01*
X137232728Y-81236823D01*
X137120405Y-81124501D01*
X137086380Y-81062189D01*
X137083500Y-81035405D01*
X137083500Y-80726268D01*
X137080524Y-80697579D01*
X137075276Y-80647003D01*
X137088141Y-80577182D01*
X137136712Y-80525400D01*
X137200603Y-80508000D01*
X139065500Y-80508000D01*
X139133621Y-80528002D01*
G37*
%TD.AperFunction*%
%TA.AperFunction,Conductor*%
G36*
X155433621Y-80528002D02*
G01*
X155480114Y-80581658D01*
X155491500Y-80634000D01*
X155491500Y-82848134D01*
X155498255Y-82910316D01*
X155549385Y-83046705D01*
X155636739Y-83163261D01*
X155643919Y-83168642D01*
X155643920Y-83168643D01*
X155751372Y-83249174D01*
X155793887Y-83306033D01*
X155798913Y-83376852D01*
X155764853Y-83439145D01*
X155751372Y-83450826D01*
X155643920Y-83531357D01*
X155636739Y-83536739D01*
X155549385Y-83653295D01*
X155498255Y-83789684D01*
X155491500Y-83851866D01*
X155491500Y-86148134D01*
X155491869Y-86151531D01*
X155492061Y-86153295D01*
X155498255Y-86210316D01*
X155549385Y-86346705D01*
X155636739Y-86463261D01*
X155643919Y-86468642D01*
X155643920Y-86468643D01*
X155751372Y-86549174D01*
X155793887Y-86606033D01*
X155798913Y-86676852D01*
X155764853Y-86739145D01*
X155751372Y-86750826D01*
X155643995Y-86831301D01*
X155636739Y-86836739D01*
X155549385Y-86953295D01*
X155498255Y-87089684D01*
X155491500Y-87151866D01*
X155491500Y-87683623D01*
X155471498Y-87751744D01*
X155457127Y-87770112D01*
X155457026Y-87770219D01*
X155454494Y-87772825D01*
X155143669Y-88083650D01*
X155080772Y-88117801D01*
X155024176Y-88129831D01*
X155024167Y-88129834D01*
X155017712Y-88131206D01*
X155011682Y-88133891D01*
X155011681Y-88133891D01*
X154849278Y-88206197D01*
X154849276Y-88206198D01*
X154843248Y-88208882D01*
X154837907Y-88212762D01*
X154837906Y-88212763D01*
X154797065Y-88242436D01*
X154730197Y-88266294D01*
X154723004Y-88266500D01*
X153389710Y-88266500D01*
X153321589Y-88246498D01*
X153275096Y-88192842D01*
X153264992Y-88122568D01*
X153294486Y-88057988D01*
X153300615Y-88051405D01*
X153336639Y-88015381D01*
X153425472Y-87868699D01*
X153430300Y-87853295D01*
X153449639Y-87791581D01*
X153476753Y-87705062D01*
X153483500Y-87631635D01*
X153483499Y-87339595D01*
X153503501Y-87271476D01*
X153520404Y-87250500D01*
X153591778Y-87179127D01*
X153691778Y-87079127D01*
X153700057Y-87071593D01*
X153706538Y-87067480D01*
X153753164Y-87017828D01*
X153755918Y-87014987D01*
X153775655Y-86995250D01*
X153778135Y-86992053D01*
X153785840Y-86983031D01*
X153810679Y-86956580D01*
X153816106Y-86950801D01*
X153819925Y-86943855D01*
X153819927Y-86943852D01*
X153825868Y-86933046D01*
X153836719Y-86916527D01*
X153844278Y-86906781D01*
X153849134Y-86900521D01*
X153852279Y-86893252D01*
X153852282Y-86893248D01*
X153866694Y-86859943D01*
X153871911Y-86849293D01*
X153893215Y-86810540D01*
X153895788Y-86800521D01*
X153898253Y-86790918D01*
X153904657Y-86772214D01*
X153909553Y-86760900D01*
X153909553Y-86760899D01*
X153912701Y-86753625D01*
X153913940Y-86745802D01*
X153913943Y-86745792D01*
X153919619Y-86709956D01*
X153922025Y-86698336D01*
X153931048Y-86663191D01*
X153931048Y-86663190D01*
X153933020Y-86655510D01*
X153933020Y-86635256D01*
X153934571Y-86615545D01*
X153935541Y-86609424D01*
X153937740Y-86595537D01*
X153933579Y-86551518D01*
X153933020Y-86539661D01*
X153933020Y-81803287D01*
X153933547Y-81792104D01*
X153935222Y-81784611D01*
X153934563Y-81763628D01*
X153933082Y-81716534D01*
X153933020Y-81712575D01*
X153933020Y-81684664D01*
X153932515Y-81680664D01*
X153931582Y-81668821D01*
X153930442Y-81632550D01*
X153930193Y-81624631D01*
X153924541Y-81605177D01*
X153920533Y-81585820D01*
X153918988Y-81573590D01*
X153918988Y-81573589D01*
X153917994Y-81565723D01*
X153911623Y-81549631D01*
X153901716Y-81524608D01*
X153897871Y-81513378D01*
X153887749Y-81478537D01*
X153887749Y-81478536D01*
X153885538Y-81470927D01*
X153881505Y-81464108D01*
X153881503Y-81464103D01*
X153875227Y-81453492D01*
X153866532Y-81435744D01*
X153859072Y-81416903D01*
X153852719Y-81408158D01*
X153833084Y-81381133D01*
X153826568Y-81371213D01*
X153808100Y-81339985D01*
X153808098Y-81339982D01*
X153804062Y-81333158D01*
X153789741Y-81318837D01*
X153776900Y-81303803D01*
X153775102Y-81301328D01*
X153764992Y-81287413D01*
X153758887Y-81282362D01*
X153758882Y-81282357D01*
X153730922Y-81259226D01*
X153722144Y-81251239D01*
X153520405Y-81049501D01*
X153486380Y-80987189D01*
X153483500Y-80960405D01*
X153483500Y-80651268D01*
X153483163Y-80648016D01*
X153483162Y-80648005D01*
X153483057Y-80646991D01*
X153483098Y-80646768D01*
X153482995Y-80644776D01*
X153483470Y-80644751D01*
X153495928Y-80577171D01*
X153544504Y-80525394D01*
X153608385Y-80508000D01*
X155365500Y-80508000D01*
X155433621Y-80528002D01*
G37*
%TD.AperFunction*%
%TA.AperFunction,Conductor*%
G36*
X152623435Y-85442058D02*
G01*
X152661249Y-85502146D01*
X152666020Y-85536492D01*
X152666020Y-86260885D01*
X152646018Y-86329006D01*
X152629115Y-86349981D01*
X152549499Y-86429596D01*
X152487186Y-86463621D01*
X152460404Y-86466500D01*
X152186386Y-86466501D01*
X152168366Y-86466501D01*
X152165508Y-86466764D01*
X152165499Y-86466764D01*
X152131630Y-86469876D01*
X152094938Y-86473247D01*
X152088560Y-86475246D01*
X152088559Y-86475246D01*
X151938550Y-86522256D01*
X151938548Y-86522257D01*
X151931301Y-86524528D01*
X151784619Y-86613361D01*
X151779243Y-86618737D01*
X151773272Y-86623419D01*
X151772085Y-86621906D01*
X151718561Y-86651133D01*
X151647746Y-86646068D01*
X151613688Y-86626895D01*
X151601165Y-86617005D01*
X151468120Y-86534996D01*
X151454939Y-86528849D01*
X151306186Y-86479509D01*
X151292810Y-86476642D01*
X151201903Y-86467328D01*
X151195486Y-86467000D01*
X151172115Y-86467000D01*
X151156876Y-86471475D01*
X151155671Y-86472865D01*
X151154000Y-86480548D01*
X151154000Y-87553000D01*
X151133998Y-87621121D01*
X151080342Y-87667614D01*
X151028000Y-87679000D01*
X150772000Y-87679000D01*
X150703879Y-87658998D01*
X150657386Y-87605342D01*
X150646000Y-87553000D01*
X150646000Y-86485115D01*
X150641525Y-86469876D01*
X150640135Y-86468671D01*
X150632452Y-86467000D01*
X150604562Y-86467000D01*
X150598047Y-86467337D01*
X150505943Y-86476894D01*
X150492541Y-86479789D01*
X150424375Y-86502530D01*
X150353426Y-86505114D01*
X150292342Y-86468930D01*
X150260518Y-86405466D01*
X150258500Y-86383006D01*
X150258500Y-86351866D01*
X150251745Y-86289684D01*
X150200615Y-86153295D01*
X150113261Y-86036739D01*
X149996705Y-85949385D01*
X149884929Y-85907482D01*
X149828165Y-85864840D01*
X149803465Y-85798279D01*
X149818672Y-85728930D01*
X149868958Y-85678812D01*
X149929159Y-85663500D01*
X151316502Y-85663500D01*
X151318950Y-85663307D01*
X151318958Y-85663307D01*
X151347421Y-85661067D01*
X151347426Y-85661066D01*
X151353831Y-85660562D01*
X151460748Y-85629500D01*
X151505988Y-85616357D01*
X151505990Y-85616356D01*
X151513601Y-85614145D01*
X151560042Y-85586680D01*
X151649980Y-85533491D01*
X151649983Y-85533489D01*
X151656807Y-85529453D01*
X151662416Y-85523844D01*
X151668675Y-85518989D01*
X151669844Y-85520496D01*
X151723167Y-85491379D01*
X151749950Y-85488500D01*
X151766233Y-85488500D01*
X151777416Y-85489027D01*
X151784909Y-85490702D01*
X151792835Y-85490453D01*
X151792836Y-85490453D01*
X151852986Y-85488562D01*
X151856945Y-85488500D01*
X151884856Y-85488500D01*
X151887190Y-85488205D01*
X151920560Y-85490655D01*
X151998056Y-85507128D01*
X151998061Y-85507128D01*
X152004513Y-85508500D01*
X152195487Y-85508500D01*
X152201939Y-85507128D01*
X152201944Y-85507128D01*
X152291221Y-85488151D01*
X152382288Y-85468794D01*
X152442339Y-85442058D01*
X152488771Y-85421385D01*
X152559138Y-85411951D01*
X152623435Y-85442058D01*
G37*
%TD.AperFunction*%
%TA.AperFunction,Conductor*%
G36*
X165853482Y-85519108D02*
G01*
X165902989Y-85533491D01*
X165989992Y-85558768D01*
X165989997Y-85558769D01*
X165996169Y-85560562D01*
X166002574Y-85561066D01*
X166002579Y-85561067D01*
X166031042Y-85563307D01*
X166031050Y-85563307D01*
X166033498Y-85563500D01*
X167590501Y-85563500D01*
X167658622Y-85583502D01*
X167705115Y-85637158D01*
X167716501Y-85689500D01*
X167716501Y-85781634D01*
X167716764Y-85784492D01*
X167716764Y-85784501D01*
X167717263Y-85789928D01*
X167723247Y-85855062D01*
X167725246Y-85861440D01*
X167725246Y-85861441D01*
X167739675Y-85907482D01*
X167774528Y-86018699D01*
X167863361Y-86165381D01*
X167984619Y-86286639D01*
X167991121Y-86290576D01*
X167991120Y-86290576D01*
X168010123Y-86302085D01*
X168058029Y-86354483D01*
X168070001Y-86424463D01*
X168042239Y-86489806D01*
X168010122Y-86517635D01*
X167975850Y-86538391D01*
X167907220Y-86556569D01*
X167844465Y-86537874D01*
X167718125Y-86459998D01*
X167704939Y-86453849D01*
X167556186Y-86404509D01*
X167542810Y-86401642D01*
X167451903Y-86392328D01*
X167445486Y-86392000D01*
X167422115Y-86392000D01*
X167406876Y-86396475D01*
X167405671Y-86397865D01*
X167404000Y-86405548D01*
X167404000Y-87478000D01*
X167383998Y-87546121D01*
X167330342Y-87592614D01*
X167278000Y-87604000D01*
X167022000Y-87604000D01*
X166953879Y-87583998D01*
X166907386Y-87530342D01*
X166896000Y-87478000D01*
X166896000Y-86410115D01*
X166891525Y-86394876D01*
X166890135Y-86393671D01*
X166882452Y-86392000D01*
X166854562Y-86392000D01*
X166848047Y-86392337D01*
X166755943Y-86401894D01*
X166742538Y-86404789D01*
X166723813Y-86411036D01*
X166652864Y-86413620D01*
X166591780Y-86377435D01*
X166559957Y-86313971D01*
X166558538Y-86301862D01*
X166558500Y-86301866D01*
X166558030Y-86297540D01*
X166551745Y-86239684D01*
X166500615Y-86103295D01*
X166413261Y-85986739D01*
X166296705Y-85899385D01*
X166160316Y-85848255D01*
X166098134Y-85841500D01*
X165875416Y-85841500D01*
X165807295Y-85821498D01*
X165766961Y-85779637D01*
X165758576Y-85765458D01*
X165758576Y-85765457D01*
X165754542Y-85758637D01*
X165740218Y-85744313D01*
X165727380Y-85729282D01*
X165716396Y-85714165D01*
X165692539Y-85647296D01*
X165708621Y-85578145D01*
X165759536Y-85528666D01*
X165829119Y-85514568D01*
X165853482Y-85519108D01*
G37*
%TD.AperFunction*%
%TA.AperFunction,Conductor*%
G36*
X122733621Y-80528002D02*
G01*
X122780114Y-80581658D01*
X122791500Y-80634000D01*
X122791500Y-82848134D01*
X122798255Y-82910316D01*
X122849385Y-83046705D01*
X122936739Y-83163261D01*
X122943919Y-83168642D01*
X122943920Y-83168643D01*
X123051372Y-83249174D01*
X123093887Y-83306033D01*
X123098913Y-83376852D01*
X123064853Y-83439145D01*
X123051372Y-83450826D01*
X122943920Y-83531357D01*
X122936739Y-83536739D01*
X122849385Y-83653295D01*
X122798255Y-83789684D01*
X122791500Y-83851866D01*
X122791500Y-86148134D01*
X122791869Y-86151531D01*
X122792061Y-86153295D01*
X122798255Y-86210316D01*
X122849385Y-86346705D01*
X122936739Y-86463261D01*
X122943919Y-86468642D01*
X122943920Y-86468643D01*
X123051372Y-86549174D01*
X123093887Y-86606033D01*
X123098913Y-86676852D01*
X123064853Y-86739145D01*
X123051372Y-86750826D01*
X122943995Y-86831301D01*
X122936739Y-86836739D01*
X122849385Y-86953295D01*
X122798255Y-87089684D01*
X122791500Y-87151866D01*
X122791500Y-87415500D01*
X122771498Y-87483621D01*
X122717842Y-87530114D01*
X122665500Y-87541500D01*
X122294874Y-87541500D01*
X122226753Y-87521498D01*
X122219327Y-87516339D01*
X122196705Y-87499385D01*
X122139661Y-87478000D01*
X122078203Y-87454960D01*
X122021439Y-87412318D01*
X121996739Y-87345756D01*
X122011947Y-87276408D01*
X122033493Y-87247727D01*
X122119822Y-87161699D01*
X122138096Y-87143489D01*
X122156535Y-87117829D01*
X122265435Y-86966277D01*
X122268453Y-86962077D01*
X122272794Y-86953295D01*
X122365136Y-86766453D01*
X122365137Y-86766451D01*
X122367430Y-86761811D01*
X122404542Y-86639661D01*
X122430865Y-86553023D01*
X122430865Y-86553021D01*
X122432370Y-86548069D01*
X122461529Y-86326590D01*
X122461894Y-86311666D01*
X122463074Y-86263365D01*
X122463074Y-86263361D01*
X122463156Y-86260000D01*
X122444852Y-86037361D01*
X122390431Y-85820702D01*
X122301354Y-85615840D01*
X122258406Y-85549452D01*
X122182822Y-85432617D01*
X122182820Y-85432614D01*
X122180014Y-85428277D01*
X122029670Y-85263051D01*
X122025619Y-85259852D01*
X122025615Y-85259848D01*
X121858414Y-85127800D01*
X121858410Y-85127798D01*
X121854359Y-85124598D01*
X121813053Y-85101796D01*
X121763084Y-85051364D01*
X121748312Y-84981921D01*
X121773428Y-84915516D01*
X121800780Y-84888909D01*
X121866175Y-84842263D01*
X121979860Y-84761173D01*
X122058835Y-84682474D01*
X122102875Y-84638587D01*
X122138096Y-84603489D01*
X122144147Y-84595069D01*
X122265435Y-84426277D01*
X122268453Y-84422077D01*
X122284786Y-84389031D01*
X122365136Y-84226453D01*
X122365137Y-84226451D01*
X122367430Y-84221811D01*
X122416005Y-84061933D01*
X122430865Y-84013023D01*
X122430865Y-84013021D01*
X122432370Y-84008069D01*
X122461529Y-83786590D01*
X122463156Y-83720000D01*
X122444852Y-83497361D01*
X122390431Y-83280702D01*
X122301354Y-83075840D01*
X122234984Y-82973247D01*
X122182822Y-82892617D01*
X122182820Y-82892614D01*
X122180014Y-82888277D01*
X122029670Y-82723051D01*
X122025619Y-82719852D01*
X122025615Y-82719848D01*
X121858414Y-82587800D01*
X121858410Y-82587798D01*
X121854359Y-82584598D01*
X121812569Y-82561529D01*
X121762598Y-82511097D01*
X121747826Y-82441654D01*
X121772942Y-82375248D01*
X121800294Y-82348641D01*
X121975328Y-82223792D01*
X121983200Y-82217139D01*
X122134052Y-82066812D01*
X122140730Y-82058965D01*
X122265003Y-81886020D01*
X122270313Y-81877183D01*
X122364670Y-81686267D01*
X122368469Y-81676672D01*
X122430377Y-81472910D01*
X122432555Y-81462837D01*
X122433986Y-81451962D01*
X122431775Y-81437778D01*
X122418617Y-81434000D01*
X121734000Y-81434000D01*
X121665879Y-81413998D01*
X121619386Y-81360342D01*
X121608000Y-81308000D01*
X121608000Y-81052000D01*
X121628002Y-80983879D01*
X121681658Y-80937386D01*
X121734000Y-80926000D01*
X122418344Y-80926000D01*
X122431875Y-80922027D01*
X122433180Y-80912947D01*
X122391214Y-80745875D01*
X122387894Y-80736123D01*
X122365336Y-80684242D01*
X122356517Y-80613795D01*
X122387184Y-80549763D01*
X122447600Y-80512476D01*
X122480886Y-80508000D01*
X122665500Y-80508000D01*
X122733621Y-80528002D01*
G37*
%TD.AperFunction*%
%TA.AperFunction,Conductor*%
G36*
X161871121Y-84521002D02*
G01*
X161917614Y-84574658D01*
X161929000Y-84627000D01*
X161929000Y-85544884D01*
X161933475Y-85560123D01*
X161934865Y-85561328D01*
X161942548Y-85562999D01*
X162069156Y-85562999D01*
X162137277Y-85583001D01*
X162183770Y-85636657D01*
X162194466Y-85675827D01*
X162194780Y-85678812D01*
X162197304Y-85702829D01*
X162184532Y-85772667D01*
X162136030Y-85824514D01*
X162071994Y-85842000D01*
X162022115Y-85842000D01*
X162006876Y-85846475D01*
X162005671Y-85847865D01*
X162004000Y-85855548D01*
X162004000Y-86903000D01*
X161983998Y-86971121D01*
X161930342Y-87017614D01*
X161878000Y-87029000D01*
X161622000Y-87029000D01*
X161553879Y-87008998D01*
X161507386Y-86955342D01*
X161496000Y-86903000D01*
X161496000Y-85860116D01*
X161491525Y-85844877D01*
X161490135Y-85843672D01*
X161482452Y-85842001D01*
X161084011Y-85842001D01*
X161015890Y-85821999D01*
X160969397Y-85768343D01*
X160958011Y-85716001D01*
X160958011Y-85689000D01*
X160978013Y-85620879D01*
X161031669Y-85574386D01*
X161084011Y-85563000D01*
X161402885Y-85563000D01*
X161418124Y-85558525D01*
X161419329Y-85557135D01*
X161421000Y-85549452D01*
X161421000Y-84627000D01*
X161441002Y-84558879D01*
X161494658Y-84512386D01*
X161547000Y-84501000D01*
X161803000Y-84501000D01*
X161871121Y-84521002D01*
G37*
%TD.AperFunction*%
%TA.AperFunction,Conductor*%
G36*
X149127011Y-80528002D02*
G01*
X149173504Y-80581658D01*
X149183608Y-80651932D01*
X149179888Y-80669147D01*
X149171628Y-80697579D01*
X149146232Y-80784992D01*
X149146231Y-80784997D01*
X149144438Y-80791169D01*
X149141500Y-80828498D01*
X149141500Y-81261502D01*
X149144438Y-81298831D01*
X149162910Y-81362413D01*
X149178184Y-81414985D01*
X149190855Y-81458601D01*
X149275547Y-81601807D01*
X149278229Y-81604489D01*
X149303502Y-81668861D01*
X149289600Y-81738484D01*
X149279428Y-81754312D01*
X149275547Y-81758193D01*
X149190855Y-81901399D01*
X149144438Y-82061169D01*
X149141500Y-82098498D01*
X149141500Y-82531502D01*
X149141693Y-82533950D01*
X149141693Y-82533958D01*
X149143724Y-82559754D01*
X149144438Y-82568831D01*
X149190855Y-82728601D01*
X149275547Y-82871807D01*
X149278229Y-82874489D01*
X149303502Y-82938861D01*
X149289600Y-83008484D01*
X149279428Y-83024312D01*
X149275547Y-83028193D01*
X149190855Y-83171399D01*
X149184574Y-83193019D01*
X149146363Y-83252854D01*
X149089776Y-83281113D01*
X148992133Y-83301868D01*
X148986103Y-83304553D01*
X148986102Y-83304553D01*
X148823699Y-83376859D01*
X148823697Y-83376860D01*
X148817669Y-83379544D01*
X148812328Y-83383424D01*
X148812327Y-83383425D01*
X148777334Y-83408849D01*
X148663168Y-83491796D01*
X148535381Y-83633718D01*
X148501228Y-83692872D01*
X148446176Y-83788226D01*
X148439894Y-83799106D01*
X148380879Y-83980734D01*
X148380189Y-83987295D01*
X148380189Y-83987297D01*
X148372345Y-84061933D01*
X148360917Y-84170662D01*
X148361607Y-84177227D01*
X148379151Y-84344145D01*
X148380879Y-84360590D01*
X148439894Y-84542218D01*
X148440926Y-84544005D01*
X148450136Y-84612704D01*
X148420029Y-84677000D01*
X148359939Y-84714813D01*
X148308677Y-84716524D01*
X148308515Y-84718063D01*
X148301944Y-84717372D01*
X148295487Y-84716000D01*
X148104513Y-84716000D01*
X148098061Y-84717372D01*
X148098056Y-84717372D01*
X148020343Y-84733891D01*
X147917712Y-84755706D01*
X147911684Y-84758390D01*
X147911681Y-84758391D01*
X147749278Y-84830697D01*
X147749276Y-84830698D01*
X147743248Y-84833382D01*
X147588747Y-84945634D01*
X147504270Y-85039456D01*
X147493636Y-85051266D01*
X147433190Y-85088506D01*
X147362207Y-85087154D01*
X147306364Y-85051266D01*
X147295731Y-85039456D01*
X147211253Y-84945634D01*
X147056752Y-84833382D01*
X147050724Y-84830698D01*
X147050722Y-84830697D01*
X146946460Y-84784277D01*
X146882288Y-84755706D01*
X146857292Y-84750393D01*
X146794820Y-84716664D01*
X146760500Y-84654513D01*
X146757880Y-84637029D01*
X146755570Y-84607664D01*
X146753270Y-84595069D01*
X146710893Y-84449210D01*
X146704648Y-84434779D01*
X146628089Y-84305323D01*
X146622129Y-84297640D01*
X146596180Y-84231556D01*
X146610078Y-84161933D01*
X146620421Y-84145839D01*
X146624453Y-84141807D01*
X146709145Y-83998601D01*
X146755562Y-83838831D01*
X146756163Y-83831206D01*
X146758307Y-83803958D01*
X146758307Y-83803950D01*
X146758500Y-83801502D01*
X146758500Y-83368498D01*
X146758307Y-83366042D01*
X146756067Y-83337579D01*
X146756066Y-83337574D01*
X146755562Y-83331169D01*
X146715426Y-83193017D01*
X146711357Y-83179012D01*
X146711356Y-83179010D01*
X146709145Y-83171399D01*
X146624453Y-83028193D01*
X146621771Y-83025511D01*
X146596498Y-82961139D01*
X146610400Y-82891516D01*
X146620572Y-82875688D01*
X146624453Y-82871807D01*
X146709145Y-82728601D01*
X146755562Y-82568831D01*
X146756277Y-82559754D01*
X146758307Y-82533958D01*
X146758307Y-82533950D01*
X146758500Y-82531502D01*
X146758500Y-82098498D01*
X146755562Y-82061169D01*
X146709145Y-81901399D01*
X146624453Y-81758193D01*
X146621771Y-81755511D01*
X146596498Y-81691139D01*
X146610400Y-81621516D01*
X146620572Y-81605688D01*
X146624453Y-81601807D01*
X146709145Y-81458601D01*
X146721817Y-81414985D01*
X146737090Y-81362413D01*
X146755562Y-81298831D01*
X146758500Y-81261502D01*
X146758500Y-80828498D01*
X146755562Y-80791169D01*
X146753769Y-80784997D01*
X146753768Y-80784992D01*
X146728372Y-80697579D01*
X146720113Y-80669152D01*
X146720316Y-80598157D01*
X146758870Y-80538540D01*
X146823535Y-80509232D01*
X146841110Y-80508000D01*
X149058890Y-80508000D01*
X149127011Y-80528002D01*
G37*
%TD.AperFunction*%
%TA.AperFunction,Conductor*%
G36*
X132693279Y-80528002D02*
G01*
X132739772Y-80581658D01*
X132749876Y-80651932D01*
X132742171Y-80679174D01*
X132740855Y-80681399D01*
X132694438Y-80841169D01*
X132691500Y-80878498D01*
X132691500Y-81311502D01*
X132691693Y-81313950D01*
X132691693Y-81313958D01*
X132693893Y-81341903D01*
X132694438Y-81348831D01*
X132708121Y-81395927D01*
X132734140Y-81485486D01*
X132740855Y-81508601D01*
X132825547Y-81651807D01*
X132828229Y-81654489D01*
X132853502Y-81718861D01*
X132839600Y-81788484D01*
X132829428Y-81804312D01*
X132825547Y-81808193D01*
X132740855Y-81951399D01*
X132738644Y-81959010D01*
X132738643Y-81959012D01*
X132736154Y-81967579D01*
X132694438Y-82111169D01*
X132693934Y-82117574D01*
X132693933Y-82117579D01*
X132691693Y-82146042D01*
X132691500Y-82148498D01*
X132691500Y-82581502D01*
X132691693Y-82583950D01*
X132691693Y-82583958D01*
X132691996Y-82587800D01*
X132694438Y-82618831D01*
X132740855Y-82778601D01*
X132825547Y-82921807D01*
X132828229Y-82924489D01*
X132853502Y-82988861D01*
X132839600Y-83058484D01*
X132829428Y-83074312D01*
X132825547Y-83078193D01*
X132740855Y-83221399D01*
X132738644Y-83229010D01*
X132738643Y-83229012D01*
X132728061Y-83265435D01*
X132694438Y-83381169D01*
X132693934Y-83387574D01*
X132693933Y-83387579D01*
X132693093Y-83398255D01*
X132691500Y-83418498D01*
X132691500Y-83665500D01*
X132671498Y-83733621D01*
X132617842Y-83780114D01*
X132565500Y-83791500D01*
X132504513Y-83791500D01*
X132498061Y-83792872D01*
X132498056Y-83792872D01*
X132411112Y-83811353D01*
X132317712Y-83831206D01*
X132311682Y-83833891D01*
X132311681Y-83833891D01*
X132149278Y-83906197D01*
X132149276Y-83906198D01*
X132143248Y-83908882D01*
X131988747Y-84021134D01*
X131984326Y-84026044D01*
X131984325Y-84026045D01*
X131880093Y-84141807D01*
X131860960Y-84163056D01*
X131765473Y-84328444D01*
X131706458Y-84510072D01*
X131705768Y-84516633D01*
X131705768Y-84516635D01*
X131694006Y-84628544D01*
X131666993Y-84694201D01*
X131616705Y-84728945D01*
X131617712Y-84731206D01*
X131449278Y-84806197D01*
X131449276Y-84806198D01*
X131443248Y-84808882D01*
X131437907Y-84812762D01*
X131437906Y-84812763D01*
X131404185Y-84837263D01*
X131288747Y-84921134D01*
X131209785Y-85008831D01*
X131180355Y-85041516D01*
X131119909Y-85078756D01*
X131048926Y-85077404D01*
X130993085Y-85041518D01*
X130911253Y-84950634D01*
X130756752Y-84838382D01*
X130750724Y-84835698D01*
X130750722Y-84835697D01*
X130588319Y-84763391D01*
X130588318Y-84763391D01*
X130582288Y-84760706D01*
X130395487Y-84721000D01*
X130396073Y-84718242D01*
X130341886Y-84695955D01*
X130299706Y-84632803D01*
X130260894Y-84499212D01*
X130254648Y-84484779D01*
X130178089Y-84355323D01*
X130172129Y-84347640D01*
X130146180Y-84281556D01*
X130160078Y-84211933D01*
X130170421Y-84195839D01*
X130174453Y-84191807D01*
X130259145Y-84048601D01*
X130263102Y-84034983D01*
X130298609Y-83912763D01*
X130305562Y-83888831D01*
X130308203Y-83855283D01*
X130308307Y-83853958D01*
X130308307Y-83853950D01*
X130308500Y-83851502D01*
X130308500Y-83418498D01*
X130306907Y-83398255D01*
X130306067Y-83387579D01*
X130306066Y-83387574D01*
X130305562Y-83381169D01*
X130271939Y-83265435D01*
X130261357Y-83229012D01*
X130261356Y-83229010D01*
X130259145Y-83221399D01*
X130174453Y-83078193D01*
X130171771Y-83075511D01*
X130146498Y-83011139D01*
X130160400Y-82941516D01*
X130170572Y-82925688D01*
X130174453Y-82921807D01*
X130259145Y-82778601D01*
X130305562Y-82618831D01*
X130308005Y-82587800D01*
X130308307Y-82583958D01*
X130308307Y-82583950D01*
X130308500Y-82581502D01*
X130308500Y-82148498D01*
X130308307Y-82146042D01*
X130306067Y-82117579D01*
X130306066Y-82117574D01*
X130305562Y-82111169D01*
X130263846Y-81967579D01*
X130261357Y-81959012D01*
X130261356Y-81959010D01*
X130259145Y-81951399D01*
X130174453Y-81808193D01*
X130171771Y-81805511D01*
X130146498Y-81741139D01*
X130160400Y-81671516D01*
X130170572Y-81655688D01*
X130174453Y-81651807D01*
X130259145Y-81508601D01*
X130265861Y-81485486D01*
X130291879Y-81395927D01*
X130305562Y-81348831D01*
X130306108Y-81341903D01*
X130308307Y-81313958D01*
X130308307Y-81313950D01*
X130308500Y-81311502D01*
X130308500Y-80878498D01*
X130305562Y-80841169D01*
X130259145Y-80681399D01*
X130258810Y-80680833D01*
X130250507Y-80613585D01*
X130281282Y-80549605D01*
X130341762Y-80512420D01*
X130374842Y-80508000D01*
X132625158Y-80508000D01*
X132693279Y-80528002D01*
G37*
%TD.AperFunction*%
%TA.AperFunction,Conductor*%
G36*
X165397958Y-80528002D02*
G01*
X165444451Y-80581658D01*
X165454555Y-80651932D01*
X165450834Y-80669152D01*
X165444438Y-80691169D01*
X165443934Y-80697574D01*
X165443933Y-80697579D01*
X165442604Y-80714470D01*
X165441500Y-80728498D01*
X165441500Y-81161502D01*
X165441693Y-81163950D01*
X165441693Y-81163958D01*
X165442991Y-81180443D01*
X165444438Y-81198831D01*
X165463359Y-81263958D01*
X165488017Y-81348831D01*
X165490855Y-81358601D01*
X165575547Y-81501807D01*
X165578229Y-81504489D01*
X165603502Y-81568861D01*
X165589600Y-81638484D01*
X165579428Y-81654312D01*
X165575547Y-81658193D01*
X165490855Y-81801399D01*
X165444438Y-81961169D01*
X165443934Y-81967574D01*
X165443933Y-81967579D01*
X165441693Y-81996042D01*
X165441500Y-81998498D01*
X165441500Y-82431502D01*
X165441693Y-82433950D01*
X165441693Y-82433958D01*
X165443637Y-82458653D01*
X165444438Y-82468831D01*
X165463359Y-82533958D01*
X165488017Y-82618831D01*
X165490855Y-82628601D01*
X165575547Y-82771807D01*
X165578229Y-82774489D01*
X165603502Y-82838861D01*
X165589600Y-82908484D01*
X165579428Y-82924312D01*
X165575547Y-82928193D01*
X165490855Y-83071399D01*
X165489640Y-83070681D01*
X165449665Y-83118722D01*
X165405636Y-83137354D01*
X165352346Y-83148681D01*
X165346316Y-83151366D01*
X165346315Y-83151366D01*
X165183912Y-83223672D01*
X165183910Y-83223673D01*
X165177882Y-83226357D01*
X165172541Y-83230237D01*
X165172540Y-83230238D01*
X165122477Y-83266611D01*
X165023381Y-83338609D01*
X165018960Y-83343519D01*
X165018959Y-83343520D01*
X164909177Y-83465446D01*
X164895594Y-83480531D01*
X164800107Y-83645919D01*
X164741092Y-83827547D01*
X164740402Y-83834108D01*
X164740402Y-83834110D01*
X164725651Y-83974456D01*
X164721130Y-84017475D01*
X164721820Y-84024040D01*
X164738736Y-84184983D01*
X164741092Y-84207403D01*
X164800107Y-84389031D01*
X164803410Y-84394753D01*
X164803411Y-84394754D01*
X164865618Y-84502500D01*
X164882356Y-84571496D01*
X164859135Y-84638587D01*
X164803328Y-84682474D01*
X164756499Y-84691500D01*
X164604513Y-84691500D01*
X164598061Y-84692872D01*
X164598056Y-84692872D01*
X164511113Y-84711353D01*
X164417712Y-84731206D01*
X164411682Y-84733891D01*
X164411681Y-84733891D01*
X164249278Y-84806197D01*
X164249276Y-84806198D01*
X164243248Y-84808882D01*
X164237907Y-84812762D01*
X164237906Y-84812763D01*
X164204185Y-84837263D01*
X164088747Y-84921134D01*
X164009785Y-85008831D01*
X163993636Y-85026766D01*
X163933190Y-85064006D01*
X163862207Y-85062654D01*
X163806364Y-85026766D01*
X163790216Y-85008831D01*
X163711253Y-84921134D01*
X163595815Y-84837263D01*
X163562094Y-84812763D01*
X163562093Y-84812762D01*
X163556752Y-84808882D01*
X163550724Y-84806198D01*
X163550722Y-84806197D01*
X163388319Y-84733891D01*
X163388318Y-84733891D01*
X163382288Y-84731206D01*
X163288887Y-84711353D01*
X163201944Y-84692872D01*
X163201939Y-84692872D01*
X163195487Y-84691500D01*
X163183999Y-84691500D01*
X163115878Y-84671498D01*
X163069385Y-84617842D01*
X163057999Y-84565500D01*
X163057999Y-84541017D01*
X163057805Y-84536080D01*
X163055570Y-84507664D01*
X163053270Y-84495069D01*
X163010893Y-84349210D01*
X163004648Y-84334779D01*
X162928089Y-84205323D01*
X162922129Y-84197640D01*
X162896180Y-84131556D01*
X162910078Y-84061933D01*
X162920421Y-84045839D01*
X162924453Y-84041807D01*
X163009145Y-83898601D01*
X163011984Y-83888831D01*
X163031612Y-83821269D01*
X163055562Y-83738831D01*
X163056163Y-83731206D01*
X163058307Y-83703958D01*
X163058307Y-83703950D01*
X163058500Y-83701502D01*
X163058500Y-83268498D01*
X163057093Y-83250615D01*
X163056067Y-83237579D01*
X163056066Y-83237574D01*
X163055562Y-83231169D01*
X163023959Y-83122389D01*
X163011357Y-83079012D01*
X163011356Y-83079010D01*
X163009145Y-83071399D01*
X162924453Y-82928193D01*
X162921771Y-82925511D01*
X162896498Y-82861139D01*
X162910400Y-82791516D01*
X162920572Y-82775688D01*
X162924453Y-82771807D01*
X163009145Y-82628601D01*
X163011984Y-82618831D01*
X163036641Y-82533958D01*
X163055562Y-82468831D01*
X163056364Y-82458653D01*
X163058307Y-82433958D01*
X163058307Y-82433950D01*
X163058500Y-82431502D01*
X163058500Y-81998498D01*
X163058307Y-81996042D01*
X163056067Y-81967579D01*
X163056066Y-81967574D01*
X163055562Y-81961169D01*
X163009145Y-81801399D01*
X162924453Y-81658193D01*
X162921771Y-81655511D01*
X162896498Y-81591139D01*
X162910400Y-81521516D01*
X162920572Y-81505688D01*
X162924453Y-81501807D01*
X163009145Y-81358601D01*
X163011984Y-81348831D01*
X163036641Y-81263958D01*
X163055562Y-81198831D01*
X163057010Y-81180443D01*
X163058307Y-81163958D01*
X163058307Y-81163950D01*
X163058500Y-81161502D01*
X163058500Y-80728498D01*
X163057396Y-80714470D01*
X163056067Y-80697579D01*
X163056066Y-80697574D01*
X163055562Y-80691169D01*
X163049166Y-80669152D01*
X163049369Y-80598155D01*
X163087924Y-80538539D01*
X163152589Y-80509232D01*
X163170163Y-80508000D01*
X165329837Y-80508000D01*
X165397958Y-80528002D01*
G37*
%TD.AperFunction*%
%TA.AperFunction,Conductor*%
G36*
X152608141Y-82241002D02*
G01*
X152654634Y-82294658D01*
X152666020Y-82347000D01*
X152666020Y-83663508D01*
X152646018Y-83731629D01*
X152592362Y-83778122D01*
X152522088Y-83788226D01*
X152488771Y-83778615D01*
X152388319Y-83733891D01*
X152388318Y-83733891D01*
X152382288Y-83731206D01*
X152288888Y-83711353D01*
X152201944Y-83692872D01*
X152201939Y-83692872D01*
X152195487Y-83691500D01*
X152034500Y-83691500D01*
X151966379Y-83671498D01*
X151919886Y-83617842D01*
X151908500Y-83565500D01*
X151908500Y-83533567D01*
X151928502Y-83465446D01*
X151982158Y-83418953D01*
X152052432Y-83408849D01*
X152074169Y-83413975D01*
X152093809Y-83420490D01*
X152107190Y-83423358D01*
X152198097Y-83432672D01*
X152204513Y-83433000D01*
X152227885Y-83433000D01*
X152243124Y-83428525D01*
X152244329Y-83427135D01*
X152246000Y-83419452D01*
X152246000Y-82347000D01*
X152266002Y-82278879D01*
X152319658Y-82232386D01*
X152372000Y-82221000D01*
X152540020Y-82221000D01*
X152608141Y-82241002D01*
G37*
%TD.AperFunction*%
%TD*%
M02*
