%TF.GenerationSoftware,KiCad,Pcbnew,(6.0.0-0)*%
%TF.CreationDate,2022-09-07T11:01:35-07:00*%
%TF.ProjectId,Connector board,436f6e6e-6563-4746-9f72-20626f617264,rev?*%
%TF.SameCoordinates,Original*%
%TF.FileFunction,Legend,Bot*%
%TF.FilePolarity,Positive*%
%FSLAX46Y46*%
G04 Gerber Fmt 4.6, Leading zero omitted, Abs format (unit mm)*
G04 Created by KiCad (PCBNEW (6.0.0-0)) date 2022-09-07 11:01:35*
%MOMM*%
%LPD*%
G01*
G04 APERTURE LIST*
%ADD10C,0.300000*%
%ADD11C,0.150000*%
G04 APERTURE END LIST*
D10*
X136757380Y-68828571D02*
X135233571Y-68257142D01*
X136757380Y-67685714D01*
X139614523Y-69495238D02*
X139995476Y-69495238D01*
X140185952Y-69400000D01*
X140376428Y-69209523D01*
X140471666Y-68828571D01*
X140471666Y-68161904D01*
X140376428Y-67780952D01*
X140185952Y-67590476D01*
X139995476Y-67495238D01*
X139614523Y-67495238D01*
X139424047Y-67590476D01*
X139233571Y-67780952D01*
X139138333Y-68161904D01*
X139138333Y-68828571D01*
X139233571Y-69209523D01*
X139424047Y-69400000D01*
X139614523Y-69495238D01*
X142185952Y-68828571D02*
X142185952Y-67495238D01*
X141328809Y-68828571D02*
X141328809Y-67780952D01*
X141424047Y-67590476D01*
X141614523Y-67495238D01*
X141900238Y-67495238D01*
X142090714Y-67590476D01*
X142185952Y-67685714D01*
X142852619Y-68828571D02*
X143614523Y-68828571D01*
X143138333Y-69495238D02*
X143138333Y-67780952D01*
X143233571Y-67590476D01*
X143424047Y-67495238D01*
X143614523Y-67495238D01*
X139756904Y-60771428D02*
X141280714Y-61342857D01*
X139756904Y-61914285D01*
X137280714Y-62104761D02*
X137280714Y-60104761D01*
X136328333Y-60771428D02*
X136328333Y-62104761D01*
X136328333Y-60961904D02*
X136233095Y-60866666D01*
X136042619Y-60771428D01*
X135756904Y-60771428D01*
X135566428Y-60866666D01*
X135471190Y-61057142D01*
X135471190Y-62104761D01*
D11*
X146550000Y-68731000D02*
X146483333Y-68764333D01*
X146383333Y-68764333D01*
X146283333Y-68731000D01*
X146216666Y-68664333D01*
X146183333Y-68597666D01*
X146150000Y-68464333D01*
X146150000Y-68364333D01*
X146183333Y-68231000D01*
X146216666Y-68164333D01*
X146283333Y-68097666D01*
X146383333Y-68064333D01*
X146450000Y-68064333D01*
X146550000Y-68097666D01*
X146583333Y-68131000D01*
X146583333Y-68364333D01*
X146450000Y-68364333D01*
X146883333Y-68531000D02*
X146883333Y-68064333D01*
X146883333Y-68464333D02*
X146916666Y-68497666D01*
X146983333Y-68531000D01*
X147083333Y-68531000D01*
X147150000Y-68497666D01*
X147183333Y-68431000D01*
X147183333Y-68064333D01*
X147816666Y-68064333D02*
X147816666Y-68764333D01*
X147816666Y-68097666D02*
X147750000Y-68064333D01*
X147616666Y-68064333D01*
X147550000Y-68097666D01*
X147516666Y-68131000D01*
X147483333Y-68197666D01*
X147483333Y-68397666D01*
X147516666Y-68464333D01*
X147550000Y-68497666D01*
X147616666Y-68531000D01*
X147750000Y-68531000D01*
X147816666Y-68497666D01*
X146483333Y-65810333D02*
X146483333Y-66510333D01*
X146650000Y-66510333D01*
X146750000Y-66477000D01*
X146816666Y-66410333D01*
X146850000Y-66343666D01*
X146883333Y-66210333D01*
X146883333Y-66110333D01*
X146850000Y-65977000D01*
X146816666Y-65910333D01*
X146750000Y-65843666D01*
X146650000Y-65810333D01*
X146483333Y-65810333D01*
X147150000Y-66443666D02*
X147183333Y-66477000D01*
X147250000Y-66510333D01*
X147416666Y-66510333D01*
X147483333Y-66477000D01*
X147516666Y-66443666D01*
X147550000Y-66377000D01*
X147550000Y-66310333D01*
X147516666Y-66210333D01*
X147116666Y-65810333D01*
X147550000Y-65810333D01*
X146483333Y-63556333D02*
X146483333Y-64256333D01*
X146650000Y-64256333D01*
X146750000Y-64223000D01*
X146816666Y-64156333D01*
X146850000Y-64089666D01*
X146883333Y-63956333D01*
X146883333Y-63856333D01*
X146850000Y-63723000D01*
X146816666Y-63656333D01*
X146750000Y-63589666D01*
X146650000Y-63556333D01*
X146483333Y-63556333D01*
X147550000Y-63556333D02*
X147150000Y-63556333D01*
X147350000Y-63556333D02*
X147350000Y-64256333D01*
X147283333Y-64156333D01*
X147216666Y-64089666D01*
X147150000Y-64056333D01*
X146100000Y-61569000D02*
X146633333Y-61569000D01*
X146366666Y-61302333D02*
X146366666Y-61835666D01*
X147300000Y-62002333D02*
X146966666Y-62002333D01*
X146933333Y-61669000D01*
X146966666Y-61702333D01*
X147033333Y-61735666D01*
X147200000Y-61735666D01*
X147266666Y-61702333D01*
X147300000Y-61669000D01*
X147333333Y-61602333D01*
X147333333Y-61435666D01*
X147300000Y-61369000D01*
X147266666Y-61335666D01*
X147200000Y-61302333D01*
X147033333Y-61302333D01*
X146966666Y-61335666D01*
X146933333Y-61369000D01*
X147533333Y-62002333D02*
X147766666Y-61302333D01*
X148000000Y-62002333D01*
X149450000Y-60069000D02*
X149516666Y-60035666D01*
X149616666Y-60035666D01*
X149716666Y-60069000D01*
X149783333Y-60135666D01*
X149816666Y-60202333D01*
X149850000Y-60335666D01*
X149850000Y-60435666D01*
X149816666Y-60569000D01*
X149783333Y-60635666D01*
X149716666Y-60702333D01*
X149616666Y-60735666D01*
X149550000Y-60735666D01*
X149450000Y-60702333D01*
X149416666Y-60669000D01*
X149416666Y-60435666D01*
X149550000Y-60435666D01*
X149116666Y-60269000D02*
X149116666Y-60735666D01*
X149116666Y-60335666D02*
X149083333Y-60302333D01*
X149016666Y-60269000D01*
X148916666Y-60269000D01*
X148850000Y-60302333D01*
X148816666Y-60369000D01*
X148816666Y-60735666D01*
X148183333Y-60735666D02*
X148183333Y-60035666D01*
X148183333Y-60702333D02*
X148250000Y-60735666D01*
X148383333Y-60735666D01*
X148450000Y-60702333D01*
X148483333Y-60669000D01*
X148516666Y-60602333D01*
X148516666Y-60402333D01*
X148483333Y-60335666D01*
X148450000Y-60302333D01*
X148383333Y-60269000D01*
X148250000Y-60269000D01*
X148183333Y-60302333D01*
X149516666Y-62989666D02*
X149516666Y-62289666D01*
X149350000Y-62289666D01*
X149250000Y-62323000D01*
X149183333Y-62389666D01*
X149150000Y-62456333D01*
X149116666Y-62589666D01*
X149116666Y-62689666D01*
X149150000Y-62823000D01*
X149183333Y-62889666D01*
X149250000Y-62956333D01*
X149350000Y-62989666D01*
X149516666Y-62989666D01*
X148850000Y-62356333D02*
X148816666Y-62323000D01*
X148750000Y-62289666D01*
X148583333Y-62289666D01*
X148516666Y-62323000D01*
X148483333Y-62356333D01*
X148450000Y-62423000D01*
X148450000Y-62489666D01*
X148483333Y-62589666D01*
X148883333Y-62989666D01*
X148450000Y-62989666D01*
X149516666Y-65243666D02*
X149516666Y-64543666D01*
X149350000Y-64543666D01*
X149250000Y-64577000D01*
X149183333Y-64643666D01*
X149150000Y-64710333D01*
X149116666Y-64843666D01*
X149116666Y-64943666D01*
X149150000Y-65077000D01*
X149183333Y-65143666D01*
X149250000Y-65210333D01*
X149350000Y-65243666D01*
X149516666Y-65243666D01*
X148450000Y-65243666D02*
X148850000Y-65243666D01*
X148650000Y-65243666D02*
X148650000Y-64543666D01*
X148716666Y-64643666D01*
X148783333Y-64710333D01*
X148850000Y-64743666D01*
X149900000Y-67231000D02*
X149366666Y-67231000D01*
X149633333Y-67497666D02*
X149633333Y-66964333D01*
X148700000Y-66797666D02*
X149033333Y-66797666D01*
X149066666Y-67131000D01*
X149033333Y-67097666D01*
X148966666Y-67064333D01*
X148800000Y-67064333D01*
X148733333Y-67097666D01*
X148700000Y-67131000D01*
X148666666Y-67197666D01*
X148666666Y-67364333D01*
X148700000Y-67431000D01*
X148733333Y-67464333D01*
X148800000Y-67497666D01*
X148966666Y-67497666D01*
X149033333Y-67464333D01*
X149066666Y-67431000D01*
X148466666Y-66797666D02*
X148233333Y-67497666D01*
X148000000Y-66797666D01*
M02*
