%TF.GenerationSoftware,KiCad,Pcbnew,(6.0.0-0)*%
%TF.CreationDate,2022-09-07T11:01:35-07:00*%
%TF.ProjectId,Connector board,436f6e6e-6563-4746-9f72-20626f617264,rev?*%
%TF.SameCoordinates,Original*%
%TF.FileFunction,Legend,Top*%
%TF.FilePolarity,Positive*%
%FSLAX46Y46*%
G04 Gerber Fmt 4.6, Leading zero omitted, Abs format (unit mm)*
G04 Created by KiCad (PCBNEW (6.0.0-0)) date 2022-09-07 11:01:35*
%MOMM*%
%LPD*%
G01*
G04 APERTURE LIST*
%ADD10C,0.150000*%
%ADD11C,0.120000*%
G04 APERTURE END LIST*
D10*
X149603571Y-69397500D02*
X149675000Y-69433214D01*
X149782142Y-69433214D01*
X149889285Y-69397500D01*
X149960714Y-69326071D01*
X149996428Y-69254642D01*
X150032142Y-69111785D01*
X150032142Y-69004642D01*
X149996428Y-68861785D01*
X149960714Y-68790357D01*
X149889285Y-68718928D01*
X149782142Y-68683214D01*
X149710714Y-68683214D01*
X149603571Y-68718928D01*
X149567857Y-68754642D01*
X149567857Y-69004642D01*
X149710714Y-69004642D01*
X149585714Y-66268214D02*
X150014285Y-66268214D01*
X149800000Y-66268214D02*
X149800000Y-67018214D01*
X149871428Y-66911071D01*
X149942857Y-66839642D01*
X150014285Y-66803928D01*
X150014285Y-64531785D02*
X149978571Y-64567500D01*
X149907142Y-64603214D01*
X149728571Y-64603214D01*
X149657142Y-64567500D01*
X149621428Y-64531785D01*
X149585714Y-64460357D01*
X149585714Y-64388928D01*
X149621428Y-64281785D01*
X150050000Y-63853214D01*
X149585714Y-63853214D01*
X150085714Y-61723928D02*
X149514285Y-61723928D01*
X149800000Y-61438214D02*
X149800000Y-62009642D01*
X148996428Y-60202500D02*
X148925000Y-60166785D01*
X148817857Y-60166785D01*
X148710714Y-60202500D01*
X148639285Y-60273928D01*
X148603571Y-60345357D01*
X148567857Y-60488214D01*
X148567857Y-60595357D01*
X148603571Y-60738214D01*
X148639285Y-60809642D01*
X148710714Y-60881071D01*
X148817857Y-60916785D01*
X148889285Y-60916785D01*
X148996428Y-60881071D01*
X149032142Y-60845357D01*
X149032142Y-60595357D01*
X148889285Y-60595357D01*
X149014285Y-63331785D02*
X148585714Y-63331785D01*
X148800000Y-63331785D02*
X148800000Y-62581785D01*
X148728571Y-62688928D01*
X148657142Y-62760357D01*
X148585714Y-62796071D01*
X148585714Y-65068214D02*
X148621428Y-65032500D01*
X148692857Y-64996785D01*
X148871428Y-64996785D01*
X148942857Y-65032500D01*
X148978571Y-65068214D01*
X149014285Y-65139642D01*
X149014285Y-65211071D01*
X148978571Y-65318214D01*
X148550000Y-65746785D01*
X149014285Y-65746785D01*
X148514285Y-67876071D02*
X149085714Y-67876071D01*
X148800000Y-68161785D02*
X148800000Y-67590357D01*
%TO.C,R2*%
X144283333Y-61316666D02*
X144050000Y-60983333D01*
X143883333Y-61316666D02*
X143883333Y-60616666D01*
X144150000Y-60616666D01*
X144216666Y-60650000D01*
X144250000Y-60683333D01*
X144283333Y-60750000D01*
X144283333Y-60850000D01*
X144250000Y-60916666D01*
X144216666Y-60950000D01*
X144150000Y-60983333D01*
X143883333Y-60983333D01*
X144550000Y-60683333D02*
X144583333Y-60650000D01*
X144650000Y-60616666D01*
X144816666Y-60616666D01*
X144883333Y-60650000D01*
X144916666Y-60683333D01*
X144950000Y-60750000D01*
X144950000Y-60816666D01*
X144916666Y-60916666D01*
X144516666Y-61316666D01*
X144950000Y-61316666D01*
%TO.C,R1*%
X144283333Y-68916666D02*
X144050000Y-68583333D01*
X143883333Y-68916666D02*
X143883333Y-68216666D01*
X144150000Y-68216666D01*
X144216666Y-68250000D01*
X144250000Y-68283333D01*
X144283333Y-68350000D01*
X144283333Y-68450000D01*
X144250000Y-68516666D01*
X144216666Y-68550000D01*
X144150000Y-68583333D01*
X143883333Y-68583333D01*
X144950000Y-68916666D02*
X144550000Y-68916666D01*
X144750000Y-68916666D02*
X144750000Y-68216666D01*
X144683333Y-68316666D01*
X144616666Y-68383333D01*
X144550000Y-68416666D01*
%TO.C,kibuzzard-6318DBA2*%
G36*
X149432870Y-67290444D02*
G01*
X147360759Y-67290444D01*
X147196047Y-67043376D01*
X147592270Y-67043376D01*
X148092332Y-67043376D01*
X148163452Y-67043376D01*
X148300136Y-67043376D01*
X148300136Y-66614434D01*
X148304581Y-66541647D01*
X148320138Y-66493863D01*
X148350142Y-66467749D01*
X148397926Y-66459970D01*
X148445710Y-66467749D01*
X148475158Y-66493308D01*
X148490160Y-66540536D01*
X148494605Y-66613323D01*
X148494605Y-67043376D01*
X148632400Y-67043376D01*
X148632400Y-66700000D01*
X148705742Y-66700000D01*
X148709701Y-66783448D01*
X148721578Y-66855992D01*
X148741372Y-66917631D01*
X148769083Y-66968367D01*
X148817732Y-67018682D01*
X148879221Y-67048871D01*
X148953551Y-67058934D01*
X149025659Y-67048871D01*
X149086407Y-67018682D01*
X149135796Y-66968367D01*
X149164480Y-66917631D01*
X149184969Y-66855992D01*
X149197262Y-66783448D01*
X149201360Y-66700000D01*
X149197366Y-66616552D01*
X149185386Y-66544008D01*
X149165418Y-66482369D01*
X149137463Y-66431633D01*
X149088506Y-66381318D01*
X149026832Y-66351129D01*
X148952440Y-66341066D01*
X148879838Y-66351129D01*
X148819090Y-66381318D01*
X148770195Y-66431633D01*
X148741997Y-66482369D01*
X148721855Y-66544008D01*
X148709771Y-66616552D01*
X148705742Y-66700000D01*
X148632400Y-66700000D01*
X148632400Y-66604433D01*
X148629622Y-66547203D01*
X148621287Y-66495530D01*
X148606285Y-66450247D01*
X148583505Y-66412186D01*
X148511829Y-66359402D01*
X148461406Y-66345650D01*
X148400148Y-66341066D01*
X148337918Y-66345650D01*
X148286801Y-66359402D01*
X148245685Y-66381766D01*
X148213458Y-66412186D01*
X148189844Y-66450247D01*
X148174565Y-66495530D01*
X148166230Y-66547203D01*
X148163452Y-66604433D01*
X148163452Y-67043376D01*
X148092332Y-67043376D01*
X148092332Y-66930029D01*
X147911198Y-66930029D01*
X147911198Y-66355513D01*
X147773403Y-66355513D01*
X147773403Y-66930029D01*
X147592270Y-66930029D01*
X147592270Y-67043376D01*
X147196047Y-67043376D01*
X146967130Y-66700000D01*
X147360759Y-66109556D01*
X149432870Y-66109556D01*
X149432870Y-67290444D01*
G37*
G36*
X149010225Y-66478861D02*
G01*
X149043007Y-66529979D01*
X149058564Y-66606099D01*
X149061481Y-66651522D01*
X149062453Y-66700000D01*
X149061481Y-66748339D01*
X149058564Y-66793345D01*
X149043007Y-66869466D01*
X149010225Y-66921139D01*
X148953551Y-66940030D01*
X148896877Y-66921139D01*
X148864095Y-66870021D01*
X148848538Y-66793901D01*
X148845621Y-66748478D01*
X148844648Y-66700000D01*
X148845621Y-66651661D01*
X148848538Y-66606655D01*
X148864095Y-66530534D01*
X148897433Y-66478861D01*
X148953551Y-66459970D01*
X149010225Y-66478861D01*
G37*
%TO.C,kibuzzard-6318DB81*%
G36*
X146676613Y-62424558D02*
G01*
X148139759Y-62424558D01*
X148523387Y-63000000D01*
X148139759Y-63575442D01*
X146676613Y-63575442D01*
X146676613Y-63343932D01*
X146908123Y-63343932D01*
X147344845Y-63343932D01*
X147454858Y-63343932D01*
X147578207Y-63343932D01*
X147578207Y-62887208D01*
X147619509Y-62963452D01*
X147658958Y-63039573D01*
X147696555Y-63115570D01*
X147732300Y-63191567D01*
X147766194Y-63267688D01*
X147798235Y-63343932D01*
X147908248Y-63343932D01*
X147908248Y-62656068D01*
X147784900Y-62656068D01*
X147784900Y-63079454D01*
X147765314Y-63036116D01*
X147742117Y-62986109D01*
X147716002Y-62931936D01*
X147687665Y-62876096D01*
X147657800Y-62819283D01*
X147627102Y-62762193D01*
X147595987Y-62707047D01*
X147564872Y-62656068D01*
X147454858Y-62656068D01*
X147454858Y-63343932D01*
X147344845Y-63343932D01*
X147344845Y-63230584D01*
X147195937Y-63230584D01*
X147195937Y-62769416D01*
X147344845Y-62769416D01*
X147344845Y-62656068D01*
X146908123Y-62656068D01*
X146908123Y-62769416D01*
X147058142Y-62769416D01*
X147058142Y-63230584D01*
X146908123Y-63230584D01*
X146908123Y-63343932D01*
X146676613Y-63343932D01*
X146676613Y-62424558D01*
G37*
D11*
%TO.C,J2*%
X149870000Y-61000000D02*
X149870000Y-59670000D01*
X149870000Y-59670000D02*
X151200000Y-59670000D01*
%TO.C,J1*%
X143485000Y-59615000D02*
X143485000Y-69985000D01*
X134355000Y-59615000D02*
X143485000Y-59615000D01*
X133355000Y-60615000D02*
X134355000Y-59615000D01*
X133355000Y-68985000D02*
X133355000Y-60615000D01*
X134355000Y-69985000D02*
X133355000Y-68985000D01*
X143485000Y-69985000D02*
X134355000Y-69985000D01*
%TO.C,R2*%
X146572936Y-61735000D02*
X147027064Y-61735000D01*
X146572936Y-60265000D02*
X147027064Y-60265000D01*
%TO.C,R1*%
X146572936Y-67865000D02*
X147027064Y-67865000D01*
X146572936Y-69335000D02*
X147027064Y-69335000D01*
%TD*%
M02*
