%TF.GenerationSoftware,KiCad,Pcbnew,(6.0.0-0)*%
%TF.CreationDate,2022-09-07T11:01:35-07:00*%
%TF.ProjectId,Connector board,436f6e6e-6563-4746-9f72-20626f617264,rev?*%
%TF.SameCoordinates,Original*%
%TF.FileFunction,Copper,L2,Bot*%
%TF.FilePolarity,Positive*%
%FSLAX46Y46*%
G04 Gerber Fmt 4.6, Leading zero omitted, Abs format (unit mm)*
G04 Created by KiCad (PCBNEW (6.0.0-0)) date 2022-09-07 11:01:35*
%MOMM*%
%LPD*%
G01*
G04 APERTURE LIST*
G04 Aperture macros list*
%AMRoundRect*
0 Rectangle with rounded corners*
0 $1 Rounding radius*
0 $2 $3 $4 $5 $6 $7 $8 $9 X,Y pos of 4 corners*
0 Add a 4 corners polygon primitive as box body*
4,1,4,$2,$3,$4,$5,$6,$7,$8,$9,$2,$3,0*
0 Add four circle primitives for the rounded corners*
1,1,$1+$1,$2,$3*
1,1,$1+$1,$4,$5*
1,1,$1+$1,$6,$7*
1,1,$1+$1,$8,$9*
0 Add four rect primitives between the rounded corners*
20,1,$1+$1,$2,$3,$4,$5,0*
20,1,$1+$1,$4,$5,$6,$7,0*
20,1,$1+$1,$6,$7,$8,$9,0*
20,1,$1+$1,$8,$9,$2,$3,0*%
G04 Aperture macros list end*
%TA.AperFunction,ComponentPad*%
%ADD10R,1.700000X1.700000*%
%TD*%
%TA.AperFunction,ComponentPad*%
%ADD11O,1.700000X1.700000*%
%TD*%
%TA.AperFunction,ComponentPad*%
%ADD12C,1.500000*%
%TD*%
%TA.AperFunction,ComponentPad*%
%ADD13RoundRect,0.250001X0.499999X-0.499999X0.499999X0.499999X-0.499999X0.499999X-0.499999X-0.499999X0*%
%TD*%
%TA.AperFunction,Conductor*%
%ADD14C,1.500000*%
%TD*%
G04 APERTURE END LIST*
D10*
%TO.P,J2,1,Pin_1*%
%TO.N,Gnd*%
X151200000Y-61000000D03*
D11*
%TO.P,J2,2,Pin_2*%
%TO.N,D2_Out*%
X151200000Y-63540000D03*
%TO.P,J2,3,Pin_3*%
%TO.N,D1_Out*%
X151200000Y-66080000D03*
%TO.P,J2,4,Pin_4*%
%TO.N,+5V*%
X151200000Y-68620000D03*
%TD*%
D12*
%TO.P,J1,4,Pin_4*%
%TO.N,Gnd*%
X145385000Y-63300000D03*
%TO.P,J1,3,Pin_3*%
%TO.N,D1_In*%
X145385000Y-66300000D03*
%TO.P,J1,2,Pin_2*%
%TO.N,D2_In*%
X142385000Y-63300000D03*
D13*
%TO.P,J1,1,Pin_1*%
%TO.N,+5V*%
X142385000Y-66300000D03*
%TD*%
D14*
%TO.N,Gnd*%
X145385000Y-63300000D02*
X147800000Y-60885000D01*
X150449980Y-60885000D02*
X150449980Y-61000000D01*
X147800000Y-60885000D02*
X150449980Y-60885000D01*
%TO.N,+5V*%
X142385000Y-66300000D02*
X144705000Y-68620000D01*
X144705000Y-68620000D02*
X150449980Y-68620000D01*
%TD*%
%TA.AperFunction,Conductor*%
%TO.N,Gnd*%
G36*
X149784121Y-60328002D02*
G01*
X149830614Y-60381658D01*
X149842000Y-60434000D01*
X149842000Y-60727885D01*
X149846475Y-60743124D01*
X149847865Y-60744329D01*
X149855548Y-60746000D01*
X150566000Y-60746000D01*
X150634121Y-60766002D01*
X150680614Y-60819658D01*
X150692000Y-60872000D01*
X150692000Y-61128000D01*
X150671998Y-61196121D01*
X150618342Y-61242614D01*
X150566000Y-61254000D01*
X149860116Y-61254000D01*
X149844877Y-61258475D01*
X149843672Y-61259865D01*
X149842001Y-61267548D01*
X149842001Y-61894669D01*
X149842371Y-61901490D01*
X149847895Y-61952352D01*
X149851521Y-61967604D01*
X149896676Y-62088054D01*
X149905214Y-62103649D01*
X149981715Y-62205724D01*
X149994276Y-62218285D01*
X150096351Y-62294786D01*
X150111946Y-62303324D01*
X150220827Y-62344142D01*
X150277591Y-62386784D01*
X150302291Y-62453345D01*
X150287083Y-62522694D01*
X150267691Y-62549175D01*
X150205287Y-62614477D01*
X150140629Y-62682138D01*
X150014743Y-62866680D01*
X149920688Y-63069305D01*
X149860989Y-63284570D01*
X149837251Y-63506695D01*
X149837548Y-63511848D01*
X149837548Y-63511851D01*
X149846783Y-63672021D01*
X149850110Y-63729715D01*
X149851247Y-63734761D01*
X149851248Y-63734767D01*
X149863618Y-63789653D01*
X149899222Y-63947639D01*
X149983266Y-64154616D01*
X149985965Y-64159020D01*
X150054530Y-64270908D01*
X150099987Y-64345088D01*
X150246250Y-64513938D01*
X150418126Y-64656632D01*
X150488595Y-64697811D01*
X150491445Y-64699476D01*
X150540169Y-64751114D01*
X150553240Y-64820897D01*
X150526509Y-64886669D01*
X150486055Y-64920027D01*
X150473607Y-64926507D01*
X150469474Y-64929610D01*
X150469471Y-64929612D01*
X150301929Y-65055406D01*
X150294965Y-65060635D01*
X150140629Y-65222138D01*
X150014743Y-65406680D01*
X149985433Y-65469824D01*
X149946251Y-65554235D01*
X149920688Y-65609305D01*
X149860989Y-65824570D01*
X149837251Y-66046695D01*
X149837548Y-66051848D01*
X149837548Y-66051851D01*
X149849039Y-66251144D01*
X149850110Y-66269715D01*
X149851247Y-66274761D01*
X149851248Y-66274767D01*
X149872275Y-66368069D01*
X149899222Y-66487639D01*
X149983266Y-66694616D01*
X150099987Y-66885088D01*
X150246250Y-67053938D01*
X150316232Y-67112038D01*
X150348173Y-67138556D01*
X150387808Y-67197458D01*
X150389306Y-67268439D01*
X150352191Y-67328962D01*
X150288247Y-67359811D01*
X150267688Y-67361500D01*
X146407477Y-67361500D01*
X146339356Y-67341498D01*
X146292863Y-67287842D01*
X146282759Y-67217568D01*
X146312253Y-67152988D01*
X146318382Y-67146405D01*
X146352749Y-67112038D01*
X146479056Y-66931653D01*
X146481379Y-66926671D01*
X146481382Y-66926666D01*
X146543189Y-66794118D01*
X146572120Y-66732076D01*
X146629115Y-66519371D01*
X146648307Y-66300000D01*
X146629115Y-66080629D01*
X146572120Y-65867924D01*
X146487489Y-65686431D01*
X146481382Y-65673334D01*
X146481379Y-65673329D01*
X146479056Y-65668347D01*
X146475899Y-65663838D01*
X146355908Y-65492473D01*
X146355906Y-65492470D01*
X146352749Y-65487962D01*
X146197038Y-65332251D01*
X146189107Y-65326697D01*
X146077111Y-65248277D01*
X146016654Y-65205944D01*
X145817076Y-65112880D01*
X145604371Y-65055885D01*
X145385000Y-65036693D01*
X145165629Y-65055885D01*
X144952924Y-65112880D01*
X144883504Y-65145251D01*
X144758334Y-65203618D01*
X144758329Y-65203621D01*
X144753347Y-65205944D01*
X144748840Y-65209100D01*
X144748838Y-65209101D01*
X144577473Y-65329092D01*
X144577470Y-65329094D01*
X144572962Y-65332251D01*
X144417251Y-65487962D01*
X144414094Y-65492470D01*
X144414092Y-65492473D01*
X144294101Y-65663838D01*
X144290944Y-65668347D01*
X144288621Y-65673329D01*
X144288618Y-65673334D01*
X144282511Y-65686431D01*
X144197880Y-65867924D01*
X144196457Y-65873235D01*
X144156062Y-66023989D01*
X144119110Y-66084611D01*
X144055249Y-66115633D01*
X143984755Y-66107204D01*
X143945260Y-66080472D01*
X143678488Y-65813700D01*
X143644462Y-65751388D01*
X143642256Y-65737609D01*
X143633238Y-65650693D01*
X143633237Y-65650689D01*
X143632526Y-65643835D01*
X143622672Y-65614297D01*
X143582027Y-65492473D01*
X143576550Y-65476055D01*
X143483478Y-65325652D01*
X143358303Y-65200695D01*
X143352072Y-65196854D01*
X143213968Y-65111725D01*
X143213966Y-65111724D01*
X143207738Y-65107885D01*
X143055922Y-65057530D01*
X143046389Y-65054368D01*
X143046387Y-65054368D01*
X143039861Y-65052203D01*
X143033025Y-65051503D01*
X143033022Y-65051502D01*
X142989969Y-65047091D01*
X142935400Y-65041500D01*
X142498138Y-65041500D01*
X142488711Y-65040733D01*
X142488682Y-65041124D01*
X142483079Y-65040713D01*
X142477543Y-65039806D01*
X142471930Y-65039894D01*
X142471928Y-65039894D01*
X142370736Y-65041484D01*
X142368757Y-65041500D01*
X141834600Y-65041500D01*
X141831354Y-65041837D01*
X141831350Y-65041837D01*
X141735693Y-65051762D01*
X141735689Y-65051763D01*
X141728835Y-65052474D01*
X141722299Y-65054655D01*
X141722297Y-65054655D01*
X141693169Y-65064373D01*
X141561055Y-65108450D01*
X141410652Y-65201522D01*
X141285695Y-65326697D01*
X141281855Y-65332927D01*
X141281854Y-65332928D01*
X141226841Y-65422176D01*
X141192885Y-65477262D01*
X141190581Y-65484209D01*
X141149089Y-65609305D01*
X141137203Y-65645139D01*
X141126500Y-65749600D01*
X141126500Y-66208604D01*
X141125422Y-66225051D01*
X141122521Y-66247086D01*
X141125275Y-66305475D01*
X141126360Y-66328488D01*
X141126500Y-66334424D01*
X141126500Y-66850400D01*
X141126837Y-66853646D01*
X141126837Y-66853650D01*
X141135399Y-66936162D01*
X141137474Y-66956165D01*
X141193450Y-67123945D01*
X141286522Y-67274348D01*
X141411697Y-67399305D01*
X141562262Y-67492115D01*
X141642005Y-67518564D01*
X141723611Y-67545632D01*
X141723613Y-67545632D01*
X141730139Y-67547797D01*
X141736975Y-67548497D01*
X141736978Y-67548498D01*
X141822467Y-67557257D01*
X141888194Y-67584098D01*
X141898719Y-67593506D01*
X143382117Y-69076905D01*
X143416143Y-69139217D01*
X143411078Y-69210033D01*
X143368531Y-69266868D01*
X143302011Y-69291679D01*
X143293022Y-69292000D01*
X135034000Y-69292000D01*
X134965879Y-69271998D01*
X134919386Y-69218342D01*
X134908000Y-69166000D01*
X134908000Y-64729733D01*
X136052822Y-64729733D01*
X136052975Y-64734121D01*
X136052975Y-64734127D01*
X136059802Y-64929612D01*
X136062625Y-65010458D01*
X136063387Y-65014781D01*
X136063388Y-65014788D01*
X136087164Y-65149624D01*
X136111402Y-65287087D01*
X136198203Y-65554235D01*
X136200131Y-65558188D01*
X136200133Y-65558193D01*
X136227497Y-65614297D01*
X136321340Y-65806702D01*
X136323795Y-65810341D01*
X136323798Y-65810347D01*
X136366217Y-65873235D01*
X136478415Y-66039576D01*
X136666371Y-66248322D01*
X136669733Y-66251143D01*
X136669734Y-66251144D01*
X136685707Y-66264547D01*
X136881550Y-66428879D01*
X137119764Y-66577731D01*
X137376375Y-66691982D01*
X137646390Y-66769407D01*
X137650740Y-66770018D01*
X137650743Y-66770019D01*
X137736542Y-66782077D01*
X137924552Y-66808500D01*
X138135146Y-66808500D01*
X138137332Y-66808347D01*
X138137336Y-66808347D01*
X138340827Y-66794118D01*
X138340832Y-66794117D01*
X138345212Y-66793811D01*
X138619970Y-66735409D01*
X138624099Y-66733906D01*
X138624103Y-66733905D01*
X138879781Y-66640846D01*
X138879785Y-66640844D01*
X138883926Y-66639337D01*
X139131942Y-66507464D01*
X139236896Y-66431211D01*
X139355629Y-66344947D01*
X139355632Y-66344944D01*
X139359192Y-66342358D01*
X139370481Y-66331457D01*
X139558087Y-66150287D01*
X139561252Y-66147231D01*
X139734188Y-65925882D01*
X139736384Y-65922078D01*
X139736389Y-65922071D01*
X139872435Y-65686431D01*
X139874636Y-65682619D01*
X139979862Y-65422176D01*
X139983726Y-65406680D01*
X140046753Y-65153893D01*
X140046754Y-65153888D01*
X140047817Y-65149624D01*
X140051740Y-65112306D01*
X140076719Y-64874636D01*
X140076719Y-64874633D01*
X140077178Y-64870267D01*
X140073654Y-64769338D01*
X140067529Y-64593939D01*
X140067528Y-64593933D01*
X140067375Y-64589542D01*
X140065900Y-64581173D01*
X140024271Y-64345088D01*
X140018598Y-64312913D01*
X139931797Y-64045765D01*
X139929869Y-64041812D01*
X139929867Y-64041807D01*
X139825619Y-63828069D01*
X139808660Y-63793298D01*
X139806205Y-63789659D01*
X139806202Y-63789653D01*
X139725935Y-63670653D01*
X139651585Y-63560424D01*
X139463629Y-63351678D01*
X139402042Y-63300000D01*
X141121693Y-63300000D01*
X141140885Y-63519371D01*
X141197880Y-63732076D01*
X141200205Y-63737061D01*
X141288618Y-63926666D01*
X141288621Y-63926671D01*
X141290944Y-63931653D01*
X141294100Y-63936160D01*
X141294101Y-63936162D01*
X141368078Y-64041811D01*
X141417251Y-64112038D01*
X141572962Y-64267749D01*
X141753346Y-64394056D01*
X141952924Y-64487120D01*
X142165629Y-64544115D01*
X142385000Y-64563307D01*
X142604371Y-64544115D01*
X142817076Y-64487120D01*
X143016654Y-64394056D01*
X143079342Y-64350161D01*
X144699393Y-64350161D01*
X144708687Y-64362175D01*
X144749088Y-64390464D01*
X144758584Y-64395947D01*
X144948113Y-64484326D01*
X144958405Y-64488072D01*
X145160401Y-64542196D01*
X145171196Y-64544099D01*
X145379525Y-64562326D01*
X145390475Y-64562326D01*
X145598804Y-64544099D01*
X145609599Y-64542196D01*
X145811595Y-64488072D01*
X145821887Y-64484326D01*
X146011416Y-64395947D01*
X146020912Y-64390464D01*
X146062148Y-64361590D01*
X146070523Y-64351112D01*
X146063457Y-64337668D01*
X145397811Y-63672021D01*
X145383868Y-63664408D01*
X145382034Y-63664539D01*
X145375420Y-63668790D01*
X144705820Y-64338391D01*
X144699393Y-64350161D01*
X143079342Y-64350161D01*
X143197038Y-64267749D01*
X143352749Y-64112038D01*
X143401923Y-64041811D01*
X143475899Y-63936162D01*
X143475900Y-63936160D01*
X143479056Y-63931653D01*
X143481379Y-63926671D01*
X143481382Y-63926666D01*
X143569795Y-63737061D01*
X143572120Y-63732076D01*
X143629115Y-63519371D01*
X143647828Y-63305475D01*
X144122674Y-63305475D01*
X144140901Y-63513804D01*
X144142804Y-63524599D01*
X144196928Y-63726595D01*
X144200674Y-63736887D01*
X144289054Y-63926417D01*
X144294534Y-63935907D01*
X144323411Y-63977149D01*
X144333887Y-63985523D01*
X144347334Y-63978455D01*
X145012979Y-63312811D01*
X145019356Y-63301132D01*
X145749408Y-63301132D01*
X145749539Y-63302966D01*
X145753790Y-63309580D01*
X146423391Y-63979180D01*
X146435161Y-63985607D01*
X146447176Y-63976311D01*
X146475466Y-63935907D01*
X146480946Y-63926417D01*
X146569326Y-63736887D01*
X146573072Y-63726595D01*
X146627196Y-63524599D01*
X146629099Y-63513804D01*
X146647326Y-63305475D01*
X146647326Y-63294525D01*
X146629099Y-63086196D01*
X146627196Y-63075401D01*
X146573072Y-62873405D01*
X146569326Y-62863113D01*
X146480946Y-62673583D01*
X146475466Y-62664093D01*
X146446589Y-62622851D01*
X146436113Y-62614477D01*
X146422666Y-62621545D01*
X145757021Y-63287189D01*
X145749408Y-63301132D01*
X145019356Y-63301132D01*
X145020592Y-63298868D01*
X145020461Y-63297034D01*
X145016210Y-63290420D01*
X144346609Y-62620820D01*
X144334839Y-62614393D01*
X144322824Y-62623689D01*
X144294534Y-62664093D01*
X144289054Y-62673583D01*
X144200674Y-62863113D01*
X144196928Y-62873405D01*
X144142804Y-63075401D01*
X144140901Y-63086196D01*
X144122674Y-63294525D01*
X144122674Y-63305475D01*
X143647828Y-63305475D01*
X143648307Y-63300000D01*
X143629115Y-63080629D01*
X143572120Y-62867924D01*
X143497676Y-62708277D01*
X143481382Y-62673334D01*
X143481379Y-62673329D01*
X143479056Y-62668347D01*
X143447786Y-62623689D01*
X143355908Y-62492473D01*
X143355906Y-62492470D01*
X143352749Y-62487962D01*
X143197038Y-62332251D01*
X143077983Y-62248887D01*
X144699477Y-62248887D01*
X144706545Y-62262334D01*
X145372189Y-62927979D01*
X145386132Y-62935592D01*
X145387966Y-62935461D01*
X145394580Y-62931210D01*
X146064180Y-62261609D01*
X146070607Y-62249839D01*
X146061313Y-62237825D01*
X146020912Y-62209536D01*
X146011416Y-62204053D01*
X145821887Y-62115674D01*
X145811595Y-62111928D01*
X145609599Y-62057804D01*
X145598804Y-62055901D01*
X145390475Y-62037674D01*
X145379525Y-62037674D01*
X145171196Y-62055901D01*
X145160401Y-62057804D01*
X144958405Y-62111928D01*
X144948113Y-62115674D01*
X144758583Y-62204054D01*
X144749093Y-62209534D01*
X144707851Y-62238411D01*
X144699477Y-62248887D01*
X143077983Y-62248887D01*
X143016654Y-62205944D01*
X142817076Y-62112880D01*
X142604371Y-62055885D01*
X142385000Y-62036693D01*
X142165629Y-62055885D01*
X141952924Y-62112880D01*
X141859562Y-62156415D01*
X141758334Y-62203618D01*
X141758329Y-62203621D01*
X141753347Y-62205944D01*
X141748840Y-62209100D01*
X141748838Y-62209101D01*
X141577473Y-62329092D01*
X141577470Y-62329094D01*
X141572962Y-62332251D01*
X141417251Y-62487962D01*
X141414094Y-62492470D01*
X141414092Y-62492473D01*
X141322214Y-62623689D01*
X141290944Y-62668347D01*
X141288621Y-62673329D01*
X141288618Y-62673334D01*
X141272324Y-62708277D01*
X141197880Y-62867924D01*
X141140885Y-63080629D01*
X141121693Y-63300000D01*
X139402042Y-63300000D01*
X139248450Y-63171121D01*
X139010236Y-63022269D01*
X138753625Y-62908018D01*
X138596415Y-62862939D01*
X138487837Y-62831805D01*
X138487836Y-62831805D01*
X138483610Y-62830593D01*
X138479260Y-62829982D01*
X138479257Y-62829981D01*
X138376310Y-62815513D01*
X138205448Y-62791500D01*
X137994854Y-62791500D01*
X137992668Y-62791653D01*
X137992664Y-62791653D01*
X137789173Y-62805882D01*
X137789168Y-62805883D01*
X137784788Y-62806189D01*
X137510030Y-62864591D01*
X137505901Y-62866094D01*
X137505897Y-62866095D01*
X137250219Y-62959154D01*
X137250215Y-62959156D01*
X137246074Y-62960663D01*
X136998058Y-63092536D01*
X136994499Y-63095122D01*
X136994497Y-63095123D01*
X136889895Y-63171121D01*
X136770808Y-63257642D01*
X136767644Y-63260698D01*
X136767641Y-63260700D01*
X136713679Y-63312811D01*
X136568748Y-63452769D01*
X136395812Y-63674118D01*
X136393616Y-63677922D01*
X136393611Y-63677929D01*
X136306928Y-63828069D01*
X136255364Y-63917381D01*
X136150138Y-64177824D01*
X136149073Y-64182097D01*
X136149072Y-64182099D01*
X136088887Y-64423489D01*
X136082183Y-64450376D01*
X136081724Y-64454744D01*
X136081723Y-64454749D01*
X136068436Y-64581173D01*
X136052822Y-64729733D01*
X134908000Y-64729733D01*
X134908000Y-60434000D01*
X134928002Y-60365879D01*
X134981658Y-60319386D01*
X135034000Y-60308000D01*
X149716000Y-60308000D01*
X149784121Y-60328002D01*
G37*
%TD.AperFunction*%
%TD*%
M02*
